<?xml version="1.0" encoding="UTF-8" standalone="no"?>
<svg
   version="1.1"
   width="595.27557pt"
   height="841.88977pt"
   id="svg42"
   viewBox="0 0 595.27557 841.88977"
   sodipodi:docname="card-box.cdr"
   xmlns:inkscape="http://www.inkscape.org/namespaces/inkscape"
   xmlns:sodipodi="http://sodipodi.sourceforge.net/DTD/sodipodi-0.dtd"
   xmlns="http://www.w3.org/2000/svg"
   xmlns:svg="http://www.w3.org/2000/svg">
  <defs
     id="defs46" />
  <sodipodi:namedview
     id="namedview44"
     pagecolor="#ffffff"
     bordercolor="#000000"
     borderopacity="0.25"
     inkscape:showpageshadow="2"
     inkscape:pageopacity="0.0"
     inkscape:pagecheckerboard="0"
     inkscape:deskcolor="#d1d1d1"
     inkscape:document-units="pt" />
  <path
     d="m 96.5251,195.7978 h 206.9291 c 4.6837,0 8.5039,3.8202 8.5039,8.5039 V 482.097 c 0,4.6837 -3.8202,8.5039 -8.5039,8.5039 H 96.5251 c -4.6837,0 -8.504,-3.8202 -8.504,-8.5039 V 204.3017 c 0,-4.6837 3.8203,-8.5039 8.504,-8.5039 z m 11.3386,153.0708 V 337.53 H 96.5251 v 11.3386 z m 0,22.6772 V 360.2072 H 96.5251 v 11.3386 z m 0,22.6772 V 382.8844 H 96.5251 v 11.3386 z m 0,22.6771 V 405.5615 H 96.5251 v 11.3386 z m 0,-136.063 V 269.4986 H 96.5251 v 11.3385 z m 0,22.6772 V 292.1757 H 96.5251 v 11.3386 z m 0,22.6772 V 314.8529 H 96.5251 v 11.3386 z m 0,-68.0315 V 246.8214 H 96.5251 V 258.16 Z m 0,181.4173 V 428.2387 H 96.5251 v 11.3386 z M 303.4542,348.8686 V 337.53 h -11.3386 v 11.3386 z m 0,22.6772 v -11.3386 h -11.3386 v 11.3386 z m 0,22.6772 v -11.3386 h -11.3386 v 11.3386 z m 0,22.6771 v -11.3386 h -11.3386 v 11.3386 z m 0,-136.063 v -11.3385 h -11.3386 v 11.3385 z m 0,22.6772 v -11.3386 h -11.3386 v 11.3386 z m 0,22.6772 v -11.3386 h -11.3386 v 11.3386 z m 0,-68.0315 V 246.8214 H 292.1156 V 258.16 Z m 0,181.4173 v -11.3386 h -11.3386 v 11.3386 z M 194.3203,215.6403 h 11.3386 v -11.3386 h -11.3386 z m -22.6771,0 h 11.3386 v -11.3386 h -11.3386 z m -22.6772,0 h 11.3386 V 204.3017 H 148.966 Z m -22.6771,0 h 11.3385 v -11.3386 h -11.3385 z m 136.0629,0 h 11.3386 v -11.3386 h -11.3386 z m -22.6771,0 h 11.3386 v -11.3386 h -11.3386 z m -22.6772,0 h 11.3386 V 204.3017 H 216.9975 Z M 194.3203,482.097 h 11.3386 v -11.3386 h -11.3386 z m -22.6771,0 h 11.3386 v -11.3386 h -11.3386 z m -22.6772,0 h 11.3386 V 470.7584 H 148.966 Z m -22.6771,0 h 11.3385 v -11.3386 h -11.3385 z m 136.0629,0 h 11.3386 v -11.3386 h -11.3386 z m -22.6771,0 h 11.3386 v -11.3386 h -11.3386 z m -22.6772,0 h 11.3386 v -11.3386 h -11.3386 z"
     style="fill:none;stroke:#e30016;stroke-width:0.216;stroke-linecap:butt;stroke-linejoin:miter;stroke-dasharray:none"
     id="path2" />
  <path
     d="m 347.9267,520.7737 h 170.9889 11.3386 v 11.3386 h -11.3386 v 11.3386 h 11.3386 v 14.1732 h -11.3386 v 11.3386 h 11.3386 v 11.3386 h -11.3386 -18.4252 v 11.3386 h -11.3386 v -11.3386 h -11.3385 v 11.3386 h -11.3386 v -11.3386 h -11.3386 v 11.3386 h -11.3386 v -11.3386 h -11.3386 v 11.3386 h -11.3386 v -11.3386 h -11.3385 v 11.3386 h -11.3386 v -11.3386 h -11.3386 v 11.3386 H 375.766 v -11.3386 h -11.3386 v 11.3386 h -11.3385 v -11.3386 h -18.4252 -11.3386 v -11.3386 h 11.3386 v -11.3386 h -11.3386 v -14.1732 h 11.3386 v -11.3386 h -11.3386 c -1.3689,-5.1092 -12.0357,-5.7475 -12.0357,-20.8553 0,-9.972 8.0113,-18.0561 17.8935,-18.0561 9.8821,0 18.7438,8.0841 18.7438,18.0561 z m -18.9323,0 c -4.6769,0 -8.4683,-3.7913 -8.4683,-8.4682 0,-4.6769 3.7914,-8.4682 8.4683,-8.4682 4.6768,0 8.4682,3.7913 8.4682,8.4682 0,4.6769 -3.7914,8.4682 -8.4682,8.4682 z"
     style="fill:none;stroke:#e30016;stroke-width:0.216;stroke-linecap:butt;stroke-linejoin:miter;stroke-dasharray:none"
     id="path4" />
  <path
     d="M 6.9976,470.7584 V 215.6403 h 11.3386 v -11.3386 h 11.3386 v 11.3386 H 43.848 v -11.3386 h 11.3386 v 11.3386 h 11.3386 v 31.1811 H 77.8637 V 258.16 H 66.5252 v 11.3386 h 11.3385 v 11.3385 H 66.5252 v 11.3386 h 11.3385 v 11.3386 H 66.5252 v 11.3386 h 11.3385 v 11.3386 H 66.5252 V 337.53 h 11.3385 v 11.3386 H 66.5252 v 11.3386 h 11.3385 v 11.3386 H 66.5252 v 11.3386 H 77.8637 V 394.223 H 66.5252 v 11.3385 h 11.3385 v 11.3386 H 66.5252 v 11.3386 h 11.3385 v 11.3386 H 66.5252 v 31.1811 H 55.1866 V 482.097 H 43.848 V 470.7584 H 29.6748 V 482.097 H 18.3362 v -11.3386 z"
     style="fill:none;stroke:#e30016;stroke-width:0.216;stroke-linecap:butt;stroke-linejoin:miter;stroke-dasharray:none"
     id="path6" />
  <path
     d="m 324.9,482.097 h 11.3386 v -11.3386 h 13.263 v 19.8425 h 182.3275 c 4.6837,0 8.504,-3.8202 8.504,-8.5039 V 470.7584 215.6403 204.3017 c 0,-4.6837 -3.8203,-8.5039 -8.504,-8.5039 H 349.5016 v 19.8425 h -13.263 V 204.3017 H 324.9 v 11.3386 255.1181 z"
     style="fill:none;stroke:#e30016;stroke-width:0.216;stroke-linecap:butt;stroke-linejoin:miter;stroke-dasharray:none"
     id="path8" />
  <path
     d="m 332.5348,464.0856 c 1.0982,-0.6125 2.3613,-0.962 3.7038,-0.962 h 13.263 c 4.2052,0 7.6348,3.4296 7.6348,7.6348 v 12.2077 h 174.6927 c 0.4695,0 0.8691,-0.3997 0.8691,-0.8691 V 204.3017 c 0,-0.4694 -0.3996,-0.8691 -0.8691,-0.8691 H 357.1364 v 12.2077 c 0,4.2052 -3.4296,7.6348 -7.6348,7.6348 h -13.263 c -1.3425,0 -2.6056,-0.3495 -3.7038,-0.9621 z"
     style="fill:none;stroke:#1b1918;stroke-width:0.9998;stroke-linecap:butt;stroke-linejoin:miter;stroke-dasharray:none"
     id="path10" />
  <path
     d="m 121.1267,574.4985 h 170.9889 11.3386 v -11.3386 h -11.3386 v -11.3386 h 11.3386 v -14.1732 h -11.3386 v -11.3386 h 11.3386 v -11.3386 h -11.3386 -18.4252 v -11.3386 h -11.3386 v 11.3386 h -11.3385 v -11.3386 h -11.3386 v 11.3386 h -11.3386 v -11.3386 h -11.3386 v 11.3386 h -11.3386 v -11.3386 h -11.3386 v 11.3386 h -11.3385 v -11.3386 h -11.3386 v 11.3386 H 160.3046 V 503.6323 H 148.966 v 11.3386 h -11.3386 v -11.3386 h -11.3385 v 11.3386 H 107.8637 96.5251 v 11.3386 h 11.3386 v 11.3386 H 96.5251 v 14.1732 h 11.3386 v 11.3386 H 96.5251 c -1.3689,5.1092 -12.0357,5.7475 -12.0357,20.8553 0,9.972 8.0113,18.0562 17.8935,18.0562 9.8821,0 18.7438,-8.0842 18.7438,-18.0562 z m -18.9323,0 c -4.6769,0 -8.4683,3.7913 -8.4683,8.4682 0,4.6769 3.7914,8.4682 8.4683,8.4682 4.6768,0 8.4682,-3.7913 8.4682,-8.4682 0,-4.6769 -3.7914,-8.4682 -8.4682,-8.4682 z"
     style="fill:none;stroke:#e30016;stroke-width:0.216;stroke-linecap:butt;stroke-linejoin:miter;stroke-dasharray:none"
     id="path12" />
  <path
     d="m 363.8947,241.0378 h 0.6986 c 0.2977,-0.0336 1.2684,-0.4046 2.212,-3.6392 l 0.3108,-1.0722 -2.2737,-2.3852 2.9519,0.0171 c 0.6321,-2.2208 1.276,-4.5137 1.6575,-5.8756 0.0266,-0.0951 0.009,-0.1883 -0.0508,-0.2671 -0.0596,-0.0789 -0.1448,-0.1211 -0.2435,-0.1211 h -1.2599 v -2.0618 h 9.9467 v 2.0618 h -1.2528 c -0.1018,0 -0.1892,0.045 -0.2485,0.1278 -0.059,0.0825 -0.0736,0.1797 -0.0409,0.276 l 4.0485,11.9285 c 0.3334,0.9829 1.008,1.011 2.5074,1.011 v 2.0619 h -9.9467 v -2.0619 c 0.8219,0 1.3329,0.2161 1.3742,-0.8494 0.008,-0.2035 -0.3729,-1.8188 -0.8424,-3.7208 l -3.6756,-0.0819 -1.103,3.7221 c -0.1324,0.4462 0.007,0.871 0.5749,0.93 h 0.8414 v 2.0619 h -6.1861 z m 8.9286,-7.0502 c -0.5685,-2.2516 -1.0856,-4.2511 -1.0856,-4.2511 l -1.2556,4.2374 z"
     style="fill:#302209;fill-rule:evenodd;stroke:#1b1918;stroke-width:0.216;stroke-linecap:butt;stroke-linejoin:miter;stroke-dasharray:none"
     id="path14" />
  <path
     d="m 373.2787,274.1838 c 0,0 -0.9301,0.849 -1.759,0.5865 -0.8289,-0.2626 -0.9502,-1.6175 -0.9502,-1.6175 0,0 -1.5566,1.9409 -3.1132,0.9301 -1.5567,-1.0107 -1.3748,-3.0124 -0.1012,-3.3966 1.2736,-0.3841 1.5163,0.4447 1.5163,0.4447 0,0 -0.7681,0.1416 -0.6874,0.7278 0.0807,0.5862 0.8087,0.6067 1.9206,-0.2424 1.1119,-0.8491 3.1337,-4.8117 3.1741,-4.8117 0.0403,0 2.0621,3.9626 3.174,4.8117 1.112,0.8491 1.84,0.8286 1.9207,0.2424 0.0807,-0.5862 -0.6874,-0.7278 -0.6874,-0.7278 0,0 0.2427,-0.8288 1.5163,-0.4447 1.2736,0.3842 1.4554,2.3859 -0.1012,3.3966 -1.5566,1.0108 -3.1132,-0.9301 -3.1132,-0.9301 0,0 -0.1214,1.3549 -0.9503,1.6175 -0.8289,0.2625 -1.7589,-0.5865 -1.7589,-0.5865 z m -0.0196,-25.0802 c -1.2274,0 -2.4549,0.3793 -3.4968,1.1385 -2.0838,1.5182 -2.95,4.2075 -2.1437,6.6566 -3.1212,-0.0202 -5.7063,2.4179 -5.8689,5.5351 -0.1623,3.1172 2.1556,5.8105 5.2622,6.1146 2.9262,0.2867 5.5773,-1.6425 6.2472,-4.4495 0.67,2.807 3.3211,4.7362 6.2473,4.4495 3.1065,-0.3041 5.4245,-2.9974 5.2622,-6.1146 -0.1626,-3.1172 -2.7477,-5.5553 -5.8689,-5.5351 0.8063,-2.4491 -0.0599,-5.1384 -2.1438,-6.6566 -1.0419,-0.7592 -2.2693,-1.1385 -3.4968,-1.1385 z"
     style="fill:#302209;fill-rule:evenodd;stroke:#1b1918;stroke-width:0.5669;stroke-linecap:butt;stroke-linejoin:miter;stroke-dasharray:none"
     id="path16" />
  <path
     d="m 498.4138,452.92 h 0.6986 c 0.2977,0.0336 1.2684,0.4046 2.212,3.6392 l 0.3108,1.0722 -2.2737,2.3852 2.9519,-0.0171 c 0.6321,2.2208 1.276,4.5137 1.6575,5.8756 0.0266,0.0951 0.009,0.1883 -0.0508,0.2671 -0.0596,0.0789 -0.1448,0.1211 -0.2435,0.1211 h -1.2599 v 2.0618 h 9.9467 v -2.0618 h -1.2528 c -0.1018,0 -0.1892,-0.045 -0.2485,-0.1278 -0.059,-0.0825 -0.0736,-0.1797 -0.0409,-0.276 l 4.0485,-11.9285 c 0.3334,-0.9829 1.008,-1.011 2.5074,-1.011 v -2.0619 h -9.9467 v 2.0619 c 0.8219,0 1.3329,-0.2161 1.3742,0.8494 0.008,0.2035 -0.3729,1.8188 -0.8424,3.7208 l -3.6756,0.0819 -1.103,-3.7221 c -0.1324,-0.4462 0.007,-0.871 0.5749,-0.93 h 0.8414 v -2.0619 h -6.1861 z m 8.9286,7.0502 c -0.5685,2.2516 -1.0856,4.2511 -1.0856,4.2511 l -1.2556,-4.2374 z"
     style="fill:#302209;fill-rule:evenodd;stroke:#1b1918;stroke-width:0.216;stroke-linecap:butt;stroke-linejoin:miter;stroke-dasharray:none"
     id="path18" />
  <path
     d="m 507.7978,419.774 c 0,0 -0.9301,-0.849 -1.759,-0.5865 -0.8289,0.2626 -0.9502,1.6175 -0.9502,1.6175 0,0 -1.5566,-1.9409 -3.1132,-0.9301 -1.5567,1.0107 -1.3748,3.0124 -0.1012,3.3966 1.2736,0.3842 1.5163,-0.4447 1.5163,-0.4447 0,0 -0.7681,-0.1416 -0.6874,-0.7278 0.0807,-0.5862 0.8087,-0.6067 1.9206,0.2424 1.1119,0.8491 3.1337,4.8117 3.1741,4.8117 0.0403,0 2.0621,-3.9626 3.1741,-4.8117 1.1119,-0.8491 1.8399,-0.8286 1.9206,-0.2424 0.0807,0.5862 -0.6874,0.7278 -0.6874,0.7278 0,0 0.2427,0.8289 1.5163,0.4447 1.2736,-0.3842 1.4554,-2.3859 -0.1012,-3.3966 -1.5566,-1.0108 -3.1132,0.9301 -3.1132,0.9301 0,0 -0.1214,-1.3549 -0.9503,-1.6175 -0.8289,-0.2625 -1.7589,0.5865 -1.7589,0.5865 z m -0.0196,25.0802 c -1.2274,0 -2.4549,-0.3793 -3.4968,-1.1385 -2.0838,-1.5181 -2.95,-4.2075 -2.1437,-6.6566 -3.1212,0.0202 -5.7063,-2.4179 -5.8689,-5.5351 -0.1623,-3.1172 2.1556,-5.8105 5.2622,-6.1146 2.9262,-0.2867 5.5773,1.6425 6.2472,4.4495 0.67,-2.807 3.3211,-4.7362 6.2473,-4.4495 3.1065,0.3041 5.4245,2.9974 5.2622,6.1146 -0.1626,3.1172 -2.7477,5.5553 -5.8689,5.5351 0.8063,2.4491 -0.0599,5.1385 -2.1438,6.6566 -1.0419,0.7592 -2.2693,1.1385 -3.4968,1.1385 z"
     style="fill:#302209;fill-rule:evenodd;stroke:#1b1918;stroke-width:0.5669;stroke-linecap:butt;stroke-linejoin:miter;stroke-dasharray:none"
     id="path20" />
  <path
     d="m 432.9342,419.3003 c 4.7307,0.6874 7.6221,-1.1724 7.6221,-1.1724 0,0 2.8913,1.8598 7.622,1.1724 4.7307,-0.6874 8.7336,-5.135 8.7336,-5.135 0,0 7.5212,6.0651 15.6078,0.0403 8.0866,-6.0248 6.5502,-16.0522 3.0729,-21.5109 -3.4773,-5.4587 -12.7769,-4.69 -14.7177,-2.1025 -1.9409,2.5876 -1.8599,3.4773 -1.8599,3.4773 0,0 -3.4363,-4.205 -6.3475,-8.8143 -2.9112,-4.6094 -5.0947,-8.9764 -5.0947,-8.9764 l 1.4555,-1.213 c 0,0 11.4431,8.2076 20.3791,8.9356 8.9359,0.7281 11.4428,0.1214 11.4428,0.1214 0,0 2.3855,3.1135 6.5098,1.3344 4.1243,-1.7791 2.9112,-4.4477 2.9112,-4.4477 0,0 11.599,-6.3084 11.1571,-15.5674 5.0522,-8.9931 4.6817,-20.0502 -0.9616,-28.6851 -5.643,-8.6347 -15.6215,-13.4127 -25.8864,-12.3955 3.855,-10.9462 2.1089,-23.0859 -4.6747,-32.5017 -6.7834,-9.4158 -17.7457,-14.9158 -29.3493,-14.7248 -11.6036,-0.191 -22.566,5.309 -29.3493,14.7248 -6.7837,9.4158 -8.5298,21.5555 -4.6748,32.5017 -10.2649,-1.0172 -20.2434,3.7608 -25.8864,12.3955 -5.6433,8.6349 -6.0137,19.692 -0.9615,28.6851 -0.442,9.259 11.157,15.5674 11.157,15.5674 0,0 -1.2131,2.6686 2.9112,4.4477 4.1243,1.7791 6.5098,-1.3344 6.5098,-1.3344 0,0 2.5069,0.6067 11.4429,-0.1214 8.9359,-0.728 20.3791,-8.9356 20.3791,-8.9356 l 1.4554,1.213 c 0,0 -2.1835,4.367 -5.0947,8.9764 -2.9112,4.6093 -6.3475,8.8143 -6.3475,8.8143 0,0 0.081,-0.8897 -1.8598,-3.4773 -1.9408,-2.5875 -11.2405,-3.3562 -14.7178,2.1025 -3.4772,5.4587 -5.0137,15.4861 3.0729,21.5109 8.0866,6.0248 15.6078,-0.0403 15.6078,-0.0403 0,0 4.003,4.4476 8.7336,5.135 z"
     style="fill:none;stroke:#1b1918;stroke-width:0.9998;stroke-linecap:butt;stroke-linejoin:miter;stroke-dasharray:none"
     id="path22" />
  <path
     d="m 440.5563,356.4881 c 0,0 -1.6642,4.003 -3.0188,5.8023 -1.3546,1.7992 -3.2954,3.9017 -3.2954,3.9017 0,0 2.8504,0.8299 2.9919,2.7908 0.1415,1.961 -0.445,2.9721 -1.4356,3.3156 -0.9906,0.3435 -1.4151,0.0605 -1.4151,0.0605 0,0 1.3747,-1.3949 -0.1012,-2.1025 -1.4759,-0.7075 -4.7511,1.5771 -7.622,3.5583 -2.8709,1.9811 -9.2997,5.418 -16.4565,5.9437 -7.1569,0.5257 -12.2516,-0.647 -12.2516,-0.647 0,0 0.4854,2.0215 -1.1321,2.6685 -1.6174,0.6471 -2.0218,0.081 -2.0218,0.081 0,0 0.9909,-0.4245 0.5257,-1.9004 -0.4652,-1.476 -4.5699,-4.0638 -6.6724,-5.6003 -2.1025,-1.5364 -3.9219,-3.1538 -4.3263,-6.1864 -0.4044,-3.0325 -0.0403,-4.2453 -0.0403,-4.2453 0,0 -4.9331,-5.7418 -3.9223,-13.586 1.0107,-7.8442 4.9736,-14.3947 10.9578,-18.438 5.9841,-4.0433 13.4646,-4.0029 16.4161,-3.6389 2.9516,0.364 5.9032,1.7388 5.9032,1.7388 0,0 -6.1058,-8.936 -4.731,-20.4192 2.0105,-16.7924 14.7446,-28.1417 31.6477,-28.1417"
     style="fill:none;stroke:#1b1918;stroke-width:0.5669;stroke-linecap:butt;stroke-linejoin:miter;stroke-dasharray:none"
     id="path24" />
  <path
     d="m 440.5563,342.9037 c 0,0 -0.6749,-1.8195 -2.0093,-3.3156 -1.3344,-1.4961 -2.8709,-2.5879 -2.8709,-2.5879 0,0 4.286,-2.7498 4.1647,-7.6825 -0.1214,-4.9327 -2.3858,-6.5502 -4.1243,-7.5206 -1.7385,-0.9704 -3.5986,-0.121 -4.1445,0.8088 -0.5459,0.9297 0.162,1.7183 0.5459,1.4352 0.3839,-0.283 1.8803,-1.3142 2.2036,1.1321 0.3234,2.4464 -1.0926,4.327 -3.5995,4.9737 -2.5068,0.6467 -4.6096,0.1213 -5.499,-0.2427 -0.8894,-0.364 -1.2535,-0.849 -1.2535,-0.849 0,0 2.6692,0.0406 3.4776,-1.6578 0.8084,-1.6985 -0.2427,-2.5879 -0.2427,-2.5879 0,0 -0.283,-0.768 -1.2534,-1.1724 -0.9704,-0.4044 -1.3347,-0.2228 -0.9909,0.1614 0.3439,0.3842 0.6877,1.4961 -0.7479,1.7791 -1.4356,0.283 -4.1249,-0.6458 -6.5914,-4.9321 -2.4665,-4.2863 -2.3855,-11.4025 -0.1617,-17.0632 2.2239,-5.6608 10.0464,-15.6885 23.0972,-15.6885"
     style="fill:none;stroke:#1b1918;stroke-width:0.5669;stroke-linecap:butt;stroke-linejoin:miter;stroke-dasharray:none"
     id="path26" />
  <path
     d="m 440.5563,289.2276 c -10.0873,0.4044 -18.0104,8.0066 -20.6719,15.7692 -1.9408,5.6607 -0.2831,11.0785 2.4665,13.99 2.7495,2.9115 8.976,3.5986 11.1191,1.0514 2.1432,-2.5472 2.3049,-3.8819 2.0622,-4.367 -0.2427,-0.485 -0.7883,-0.9701 -0.7883,-0.9701 0,0 1.6575,-3.8211 0.1614,-6.4493 -1.4961,-2.6282 -5.0947,-3.1132 -6.5908,-1.8194 -1.4961,1.2937 -0.3029,2.9313 0.3237,3.093 0.6265,0.1617 0.121,-0.9303 0.8692,-1.0312 0.7482,-0.1009 2.7132,1.7895 0.6871,4.3471 -2.0261,2.5576 -3.8413,1.7385 -5.2564,0.5257 -1.4151,-1.2128 -1.4151,-2.6282 -1.4151,-2.6282 0,0 1.5768,1.3748 2.6685,0.6874 1.0918,-0.6874 1.1728,-1.9405 1.0514,-2.4259 -0.1213,-0.4853 -0.6669,-0.7482 -0.6265,-0.5055 0.0403,0.2427 -0.243,1.0312 -1.0312,0.6269 -0.7883,-0.4044 -2.2043,-3.8413 1.2326,-8.6933 3.4369,-4.852 8.9583,-7.8039 13.7385,-7.8039"
     style="fill:none;stroke:#1b1918;stroke-width:0.5669;stroke-linecap:butt;stroke-linejoin:miter;stroke-dasharray:none"
     id="path28" />
  <path
     d="m 440.5563,294.4033 c 0,0 -1.8519,-0.2827 -3.1863,0.4854 -1.3344,0.768 -1.9812,1.9001 -2.4464,3.2951 -0.4651,1.3949 -1.6779,2.6279 -2.1834,2.527 -0.5056,-0.1009 -1.5163,-0.8692 -1.5163,-0.8692 0,0 -0.5257,0.9502 0.4447,2.1633 0.9704,1.2131 2.2437,1.3744 3.0931,1.0712 0.8493,-0.3032 1.3344,-0.6467 1.3344,-0.6467 0,0 -1.2941,3.1132 -0.5055,4.3062 0.7885,1.1929 0.8292,2.1226 0.7078,2.81 -0.1213,0.6874 -0.162,0.9909 -0.162,0.9909 0,0 1.2333,-0.1418 1.7388,-0.8494 0.5055,-0.7075 0.5257,-1.1522 0.5257,-1.1522 0,0 0.4245,0.4248 0.1415,3.1337 -0.283,2.7088 1.2379,4.0433 2.0139,4.8722"
     style="fill:none;stroke:#1b1918;stroke-width:0.5669;stroke-linecap:butt;stroke-linejoin:miter;stroke-dasharray:none"
     id="path30" />
  <path
     d="m 420.0228,336.4745 c 0,0 0.9096,0.7482 2.163,1.2941 1.2535,0.5459 2.3049,0.6468 2.3049,0.6468 0,0 -0.7479,0.2833 -1.5567,0.8897 -0.8087,0.6064 -1.3949,1.1522 -1.3949,1.1522 0,0 -0.2225,-1.2534 -0.5257,-2.1025 -0.3032,-0.849 -0.9906,-1.8803 -0.9906,-1.8803 z"
     style="fill:none;stroke:#1b1918;stroke-width:0.5669;stroke-linecap:butt;stroke-linejoin:miter;stroke-dasharray:none"
     id="path32" />
  <path
     d="m 421.3166,369.3066 c 0,0 4.8523,-3.2752 7.6825,-7.3589 2.8303,-4.0836 4.7711,-8.4102 4.569,-12.6962 -0.202,-4.286 -3.3158,-4.7307 -6.1461,-4.4477 -2.8302,0.283 -2.7091,4.0433 -2.3451,5.0137 0.364,0.9704 0.9099,1.5768 2.0016,1.1321 1.0917,-0.4447 0.4851,-1.5566 0.4851,-1.5566 0,0 1.0715,-1.6783 1.4355,0.7882 0.3641,2.4665 -0.5663,4.4688 -3.4775,4.9135 -2.9112,0.4447 -4.3667,-1.3344 -4.852,-1.9005 -0.4854,-0.566 -0.6874,-1.4151 -0.6874,-1.4151 l -1.6578,1.9002 c 7.357,2.207 6.5636,10.4684 2.9922,15.6273 z"
     style="fill:none;stroke:#1b1918;stroke-width:0.5669;stroke-linecap:butt;stroke-linejoin:miter;stroke-dasharray:none"
     id="path34" />
  <path
     d="m 392.6489,370.3381 c 0,0 2.3448,3.0323 6.0244,3.4773 3.6796,0.445 6.7932,-0.0404 7.3995,-1.7385 0.6064,-1.6981 0.081,-2.2238 -0.7277,-2.325 -0.8087,-0.1011 -1.3344,0.8491 -1.3344,0.8491 0,0 -0.9903,-1.678 1.8803,-2.5472 2.8706,-0.8692 4.65,1.0511 4.7307,2.5068 0.0807,1.4558 -0.6874,2.7092 -0.6874,2.7092 0,0 4.5485,-1.4554 5.8019,-5.5394 1.2535,-4.0839 0.5254,-7.3188 -1.7387,-7.6825 -2.2642,-0.3637 -3.194,0.4853 -3.3963,1.6174 -0.2023,1.1321 0.2424,1.395 0.7479,1.3546 0.5055,-0.0403 0.8692,-0.4245 0.8692,-0.4245 0,0 -0.1412,2.1428 -2.0215,2.1025 -1.8803,-0.0404 -3.6597,-1.5362 -3.5383,-4.2454 0.1213,-2.7091 1.3747,-4.0839 1.3747,-4.0839 0,0 -1.9811,-0.4444 -3.5986,-1.7385 -1.6174,-1.2941 -1.6174,-2.3048 -1.6174,-2.3048 l 1.0511,-0.3438 c 0,0 -3.1344,-3.1943 -2.083,-7.1972 1.0514,-4.003 5.0947,-5.2965 6.8739,-3.922 1.7791,1.3745 0.6067,3.2346 0.6067,3.2346 0,0 -0.9096,-1.0312 -1.5365,-0.2024 -0.6269,0.8289 -0.0202,2.3859 1.7791,2.8709 1.7993,0.4851 5.9028,-1.1315 4.3664,-6.2262 -1.5365,-5.0947 -6.5505,-7.1975 -12.5749,-7.1165 -6.0245,0.081 -12.2919,5.176 -14.3944,13.1413 -2.1025,7.9653 1.7791,14.4754 5.6607,16.0118 3.8817,1.5365 6.7926,-0.4043 7.2578,-1.6984 0.4651,-1.2941 0.1008,-2.0215 -0.2831,-2.2037 -0.3839,-0.1821 -1.4148,-0.4853 -0.1008,-1.0514 1.3139,-0.566 6.2265,1.5368 4.326,7.0765 -1.9005,5.5397 -4.7307,5.5596 -6.4896,5.7821 -1.759,0.2225 -2.9113,0.3032 -4.6277,-0.1428 z"
     style="fill:none;stroke:#1b1918;stroke-width:0.5669;stroke-linecap:butt;stroke-linejoin:miter;stroke-dasharray:none"
     id="path36" />
  <path
     d="m 392.6489,370.3381 c 1.7164,0.446 2.8687,0.3653 4.6277,0.1428 1.7589,-0.2225 4.5891,-0.2424 6.4896,-5.7821 1.9005,-5.5397 -3.0121,-7.6425 -4.326,-7.0765 -1.314,0.5661 -0.2831,0.8693 0.1008,1.0514 0.3839,0.1822 0.7482,0.9096 0.2831,2.2037 -0.4652,1.2941 -3.3761,3.2349 -7.2578,1.6984 -3.8816,-1.5364 -7.7632,-8.0465 -5.6607,-16.0118 2.1025,-7.9653 8.3699,-13.0603 14.3944,-13.1413 6.0244,-0.081 11.0384,2.0218 12.5749,7.1165 1.5364,5.0947 -2.5671,6.7113 -4.3664,6.2262 -1.7993,-0.485 -2.406,-2.042 -1.7791,-2.8709 0.6269,-0.8288 1.5365,0.2024 1.5365,0.2024 0,0 1.1724,-1.8601 -0.6067,-3.2346 -1.7792,-1.3745 -5.8225,-0.081 -6.8739,3.922 -1.0514,4.0029 2.083,7.1972 2.083,7.1972 l -1.0511,0.3438 c 0,0 0,1.0107 1.6174,2.3048 1.6175,1.2941 3.5986,1.7385 3.5986,1.7385 0,0 -1.2534,1.3748 -1.3747,4.0839 -0.1214,2.7092 1.658,4.205 3.5383,4.2454 1.8803,0.0403 2.0215,-2.1025 2.0215,-2.1025 0,0 -0.3637,0.3842 -0.8692,0.4245 -0.5055,0.0404 -0.9502,-0.2225 -0.7479,-1.3546 0.2023,-1.1321 1.1321,-1.9811 3.3963,-1.6174 2.2641,0.3637 2.9922,3.5986 1.7387,7.6825 -1.2534,4.084 -5.8019,5.5394 -5.8019,5.5394 0,0 0.7681,-1.2534 0.6874,-2.7092 -0.0807,-1.4557 -1.8601,-3.376 -4.7307,-2.5068 -2.8706,0.8692 -1.8803,2.5472 -1.8803,2.5472 0,0 0.5257,-0.9502 1.3344,-0.8491 0.8087,0.1012 1.3341,0.6269 0.7277,2.325 -0.6063,1.6981 -3.7199,2.1835 -7.3995,1.7385 -3.6796,-0.445 -6.0244,-3.4773 -6.0244,-3.4773 z m 95.8148,0 c -1.7165,0.446 -2.8688,0.3653 -4.6277,0.1428 -1.759,-0.2225 -4.5892,-0.2424 -6.4896,-5.7821 -1.9005,-5.5397 3.012,-7.6425 4.326,-7.0765 1.3139,0.5661 0.283,0.8693 -0.1009,1.0514 -0.3839,0.1822 -0.7482,0.9096 -0.283,2.2037 0.4652,1.2941 3.3761,3.2349 7.2577,1.6984 3.8816,-1.5364 7.7632,-8.0465 5.6607,-16.0118 -2.1025,-7.9653 -8.3699,-13.0603 -14.3943,-13.1413 -6.0245,-0.081 -11.0385,2.0218 -12.575,7.1165 -1.5364,5.0947 2.5671,6.7113 4.3664,6.2262 1.7993,-0.485 2.406,-2.042 1.7791,-2.8709 -0.6268,-0.8288 -1.5364,0.2024 -1.5364,0.2024 0,0 -1.1724,-1.8601 0.6067,-3.2346 1.7791,-1.3745 5.8224,-0.081 6.8738,3.922 1.0514,4.0029 -2.0829,7.1972 -2.0829,7.1972 l 1.0511,0.3438 c 0,0 0,1.0107 -1.6175,2.3048 -1.6174,1.2941 -3.5986,1.7385 -3.5986,1.7385 0,0 1.2535,1.3748 1.3748,4.0839 0.1213,2.7092 -1.6581,4.205 -3.5384,4.2454 -1.8803,0.0403 -2.0215,-2.1025 -2.0215,-2.1025 0,0 0.3637,0.3842 0.8692,0.4245 0.5056,0.0404 0.9503,-0.2225 0.7479,-1.3546 -0.2023,-1.1321 -1.132,-1.9811 -3.3962,-1.6174 -2.2642,0.3637 -2.9922,3.5986 -1.7388,7.6825 1.2534,4.084 5.802,5.5394 5.802,5.5394 0,0 -0.7681,-1.2534 -0.6874,-2.7092 0.0807,-1.4557 1.8601,-3.376 4.7307,-2.5068 2.8705,0.8692 1.8802,2.5472 1.8802,2.5472 0,0 -0.5257,-0.9502 -1.3344,-0.8491 -0.8087,0.1012 -1.3341,0.6269 -0.7277,2.325 0.6064,1.6981 3.7199,2.1835 7.3995,1.7385 3.6796,-0.445 6.0245,-3.4773 6.0245,-3.4773 z m -38.0961,35.883 c 1.2131,-3.72 -0.4848,-7.7229 -2.0215,-10.9171 -1.5368,-3.1943 -3.6393,-6.5098 -3.6393,-6.5098 0,0 -0.6996,8.1672 -4.1505,9.1783 -3.451,-1.0111 -4.1506,-9.1783 -4.1506,-9.1783 0,0 -2.1025,3.3155 -3.6393,6.5098 -1.5367,3.1942 -3.2345,7.1971 -2.0214,10.9171 1.213,3.7199 4.8119,2.5273 5.2566,0.2225 0.4447,-2.3048 -2.2846,-3.4773 -2.2846,-3.4773 0,0 2.0218,-1.9811 4.1649,-1.1321 2.1432,0.8491 2.6744,2.5674 2.6744,2.5674 0,0 0.5312,-1.7183 2.6743,-2.5674 2.1432,-0.849 4.165,1.1321 4.165,1.1321 0,0 -2.7294,1.1725 -2.2847,3.4773 0.4447,2.3048 4.0436,3.4974 5.2567,-0.2225 z m -9.8113,-37.9069 c 0,0 4.756,12.7769 7.8693,17.7909 3.1132,5.014 7.6825,10.9982 10.7151,13.06 3.0325,2.0618 5.216,2.9519 7.0758,1.0514 1.8598,-1.9005 1.0917,-4.5287 -0.9704,-4.488 -2.0621,0.0406 -1.8403,1.394 -1.8403,1.394 0,0 -0.4651,0.0608 -0.7078,-1.0309 -0.2427,-1.0918 0.2427,-3.8006 4.0433,-3.5176 3.8006,0.283 7.5209,3.1539 7.6825,9.1783 0.1617,6.0245 -2.9515,9.7044 -8.7739,10.4724 -5.8225,0.7681 -10.6345,-5.499 -10.6345,-5.499 0,0 -0.2225,2.4665 -0.6873,3.8816 -0.4649,1.4151 -2.2236,3.6389 -6.5098,4.5287 -4.2863,0.8897 -7.262,-2.2642 -7.262,-2.2642 0,0 -2.9757,3.1539 -7.262,2.2642 -4.2863,-0.8898 -6.0449,-3.1136 -6.5098,-4.5287 -0.4649,-1.4151 -0.6874,-3.8816 -0.6874,-3.8816 0,0 -4.812,6.2671 -10.6344,5.499 -5.8224,-0.768 -8.9357,-4.4479 -8.774,-10.4724 0.1617,-6.0244 3.8819,-8.8953 7.6826,-9.1783 3.8006,-0.283 4.2859,2.4258 4.0433,3.5176 -0.2427,1.0917 -0.7079,1.0309 -0.7079,1.0309 0,0 0.2219,-1.3534 -1.8403,-1.394 -2.0621,-0.0407 -2.8302,2.5875 -0.9704,4.488 1.8598,1.9005 4.0433,1.0104 7.0759,-1.0514 3.0325,-2.0618 7.6018,-8.046 10.7151,-13.06 3.1132,-5.014 7.8693,-17.7909 7.8693,-17.7909 z m 5.7946,-65.2381 c -0.8494,-0.3032 -1.3344,-0.6467 -1.3344,-0.6467 0,0 1.294,3.1132 0.5055,4.3062 -0.7886,1.1929 -0.8292,2.1226 -0.7079,2.81 0.1214,0.6874 0.162,0.9909 0.162,0.9909 0,0 -1.2332,-0.1418 -1.7388,-0.8494 -0.5055,-0.7075 -0.5257,-1.1522 -0.5257,-1.1522 0,0 -0.4245,0.4248 -0.1415,3.1337 0.283,2.7088 -1.2378,4.0433 -2.0138,4.8722 -0.776,-0.8289 -2.2969,-2.1634 -2.0139,-4.8722 0.283,-2.7089 -0.1415,-3.1337 -0.1415,-3.1337 0,0 -0.0202,0.4447 -0.5257,1.1522 -0.5055,0.7076 -1.7388,0.8494 -1.7388,0.8494 0,0 0.0407,-0.3035 0.162,-0.9909 0.1214,-0.6874 0.0807,-1.6171 -0.7078,-2.81 -0.7886,-1.193 0.5055,-4.3062 0.5055,-4.3062 0,0 -0.4851,0.3435 -1.3344,0.6467 -0.8494,0.3032 -2.1227,0.1419 -3.0931,-1.0712 -0.9704,-1.2131 -0.4447,-2.1633 -0.4447,-2.1633 0,0 1.0107,0.7683 1.5163,0.8692 0.5055,0.1009 1.7183,-1.1321 2.1834,-2.527 0.4652,-1.395 1.112,-2.5271 2.4464,-3.2951 1.3344,-0.7681 3.1863,-0.4854 3.1863,-0.4854 0,0 1.8518,-0.2827 3.1863,0.4854 1.3344,0.768 1.9811,1.9001 2.4463,3.2951 0.4652,1.3949 1.678,2.6279 2.1835,2.527 0.5055,-0.1009 1.5163,-0.8692 1.5163,-0.8692 0,0 0.5257,0.9502 -0.4448,2.1633 -0.9704,1.2131 -2.2436,1.3744 -3.093,1.0712 z m 12.4108,15.9107 c -2.7496,2.9115 -8.976,3.5986 -11.1192,1.0514 -2.1431,-2.5472 -2.3048,-3.8819 -2.0621,-4.367 0.2426,-0.485 0.7882,-0.9701 0.7882,-0.9701 0,0 -1.6575,-3.8211 -0.1614,-6.4493 1.4961,-2.6282 5.0947,-3.1132 6.5908,-1.8194 1.4961,1.2937 0.3029,2.9313 -0.3236,3.093 -0.6266,0.1617 -0.1211,-0.9303 -0.8693,-1.0312 -0.7482,-0.1009 -2.7131,1.7895 -0.6871,4.3471 2.0261,2.5576 3.8413,1.7385 5.2564,0.5257 1.4151,-1.2128 1.4151,-2.6282 1.4151,-2.6282 0,0 -1.5768,1.3748 -2.6685,0.6874 -1.0917,-0.6874 -1.1727,-1.9405 -1.0514,-2.4259 0.1213,-0.4853 0.6669,-0.7482 0.6266,-0.5055 -0.0404,0.2427 0.2429,1.0312 1.0312,0.6269 0.7882,-0.4044 2.2043,-3.8413 -1.2327,-8.6933 -3.4369,-4.852 -8.9582,-7.8039 -13.7384,-7.8039 -4.7802,0 -10.3016,2.9519 -13.7385,7.8039 -3.4369,4.852 -2.0209,8.2889 -1.2326,8.6933 0.7882,0.4043 1.0715,-0.3842 1.0312,-0.6269 -0.0404,-0.2427 0.5052,0.0202 0.6265,0.5055 0.1214,0.4854 0.0404,1.7385 -1.0514,2.4259 -1.0917,0.6874 -2.6685,-0.6874 -2.6685,-0.6874 0,0 0,1.4154 1.4151,2.6282 1.4151,1.2128 3.2303,2.0319 5.2564,-0.5257 2.0261,-2.5576 0.0611,-4.448 -0.6871,-4.3471 -0.7482,0.1009 -0.2427,1.1929 -0.8692,1.0312 -0.6266,-0.1617 -1.8198,-1.7993 -0.3237,-3.093 1.4961,-1.2938 5.0947,-0.8088 6.5908,1.8194 1.4961,2.6282 -0.1614,6.4493 -0.1614,6.4493 0,0 0.5456,0.4851 0.7883,0.9701 0.2427,0.4851 0.081,1.8198 -2.0622,4.367 -2.1431,2.5472 -8.3696,1.8601 -11.1191,-1.0514 -2.7496,-2.9115 -4.4073,-8.3293 -2.4665,-13.99 2.6615,-7.7626 10.5846,-15.3648 20.6719,-15.7692 10.0873,0.4044 18.0104,8.0066 20.6719,15.7692 1.9408,5.6607 0.283,11.0785 -2.4665,13.99 z m 18.3845,15.7911 c 0,0 6.6715,1.2532 9.1783,6.1458 2.5069,4.8927 1.4151,9.2591 -0.566,9.9871 -1.9812,0.728 -3.0934,-0.6972 -2.8911,-1.4857 0.2024,-0.7886 0.5563,-1.2131 0.5563,-1.2131 0,0 -3.3061,0.4652 -2.6187,3.8819 0.6873,3.4168 5.1356,3.7407 7.3594,2.487 2.2239,-1.2537 2.7899,-4.2863 2.7899,-4.2863 0,0 1.5365,0.0807 1.2131,-3.1942 -0.3234,-3.2749 -3.1135,-7.6822 -6.3481,-9.8657 -3.2346,-2.1835 -7.1162,-2.7092 -8.6731,-2.4568 z m -17.3503,34.5287 c -3.5713,-5.1589 -4.3648,-13.4203 2.9923,-15.6273 l -1.6578,-1.9002 c 0,0 -0.2021,0.8491 -0.6874,1.4151 -0.4854,0.5661 -1.9408,2.3452 -4.852,1.9005 -2.9112,-0.4447 -3.8416,-2.447 -3.4776,-4.9135 0.364,-2.4665 1.4356,-0.7882 1.4356,-0.7882 0,0 -0.6067,1.1119 0.485,1.5566 1.0918,0.4447 1.6377,-0.1617 2.0017,-1.1321 0.364,-0.9704 0.485,-4.7307 -2.3452,-5.0137 -2.8302,-0.283 -5.9441,0.1617 -6.1461,4.4477 -0.202,4.286 1.7388,8.6126 4.569,12.6962 2.8302,4.0837 7.6825,7.3589 7.6825,7.3589 z m -16.2208,-7.0162 c -1.3546,-1.7993 -3.0188,-5.8023 -3.0188,-5.8023 0,0 -1.6642,4.003 -3.0188,5.8023 -1.3546,1.7992 -3.2954,3.9017 -3.2954,3.9017 0,0 2.8504,0.8299 2.9919,2.7908 0.1415,1.961 -0.445,2.9721 -1.4356,3.3156 -0.9906,0.3435 -1.4151,0.0605 -1.4151,0.0605 0,0 1.3747,-1.3949 -0.1012,-2.1025 -1.4759,-0.7075 -4.7511,1.5771 -7.622,3.5583 -2.8709,1.9811 -9.2997,5.418 -16.4565,5.9437 -7.1569,0.5257 -12.2516,-0.647 -12.2516,-0.647 0,0 0.4854,2.0215 -1.1321,2.6685 -1.6174,0.6471 -2.0218,0.081 -2.0218,0.081 0,0 0.9909,-0.4245 0.5257,-1.9004 -0.4652,-1.476 -4.5699,-4.0638 -6.6724,-5.6003 -2.1025,-1.5364 -3.9219,-3.1538 -4.3263,-6.1864 -0.4044,-3.0325 -0.0403,-4.2453 -0.0403,-4.2453 0,0 -4.9331,-5.7418 -3.9223,-13.586 1.0107,-7.8442 4.9736,-14.3947 10.9578,-18.438 5.9841,-4.0433 13.4646,-4.0029 16.4161,-3.6389 2.9516,0.364 5.9032,1.7388 5.9032,1.7388 0,0 -6.1058,-8.936 -4.731,-20.4192 2.0105,-16.7924 14.7446,-28.1417 31.6477,-28.1417 16.903,0 29.6372,11.3493 31.6477,28.1417 1.3747,11.4832 -4.731,20.4192 -4.731,20.4192 0,0 2.9515,-1.3748 5.9031,-1.7388 2.9516,-0.364 10.4321,-0.4044 16.4162,3.6389 5.9841,4.0433 9.947,10.5938 10.9578,18.438 1.0107,7.8442 -3.9223,13.586 -3.9223,13.586 0,0 0.364,1.2128 -0.0404,4.2453 -0.4043,3.0326 -2.2238,4.65 -4.3263,6.1864 -2.1025,1.5365 -6.2072,4.1243 -6.6724,5.6003 -0.4652,1.4759 0.5257,1.9004 0.5257,1.9004 0,0 -0.4043,0.5661 -2.0218,-0.081 -1.6174,-0.647 -1.1321,-2.6685 -1.1321,-2.6685 0,0 -5.0947,1.1727 -12.2515,0.647 -7.1569,-0.5257 -13.5857,-3.9626 -16.4565,-5.9437 -2.8709,-1.9812 -6.1461,-4.2658 -7.6221,-3.5583 -1.4759,0.7076 -0.1011,2.1025 -0.1011,2.1025 0,0 -0.4246,0.283 -1.4151,-0.0605 -0.9906,-0.3435 -1.5771,-1.3546 -1.4356,-3.3156 0.1415,-1.9609 2.9919,-2.7908 2.9919,-2.7908 0,0 -1.9408,-2.1025 -3.2954,-3.9017 z m -3.0188,-19.3867 c 0,0 0.6748,-1.8195 2.0092,-3.3156 1.3345,-1.4961 2.8709,-2.5879 2.8709,-2.5879 0,0 -4.286,-2.7498 -4.1646,-7.6825 0.1213,-4.9327 2.3858,-6.5502 4.1243,-7.5206 1.7384,-0.9704 3.5986,-0.121 4.1444,0.8088 0.5459,0.9297 -0.162,1.7183 -0.5458,1.4352 -0.3839,-0.283 -1.8803,-1.3142 -2.2037,1.1321 -0.3234,2.4464 1.0927,4.327 3.5995,4.9737 2.5069,0.6467 4.6097,0.1213 5.4991,-0.2427 0.8894,-0.364 1.2534,-0.849 1.2534,-0.849 0,0 -2.6691,0.0406 -3.4776,-1.6578 -0.8084,-1.6985 0.2427,-2.5879 0.2427,-2.5879 0,0 0.283,-0.768 1.2534,-1.1724 0.9704,-0.4044 1.3348,-0.2228 0.9909,0.1614 -0.3438,0.3842 -0.6877,1.4961 0.7479,1.7791 1.4356,0.283 4.1249,-0.6458 6.5914,-4.9321 2.4665,-4.2863 2.3855,-11.4025 0.1617,-17.0632 -2.2238,-5.6608 -10.0463,-15.6885 -23.0971,-15.6885 -13.0508,0 -20.8733,10.0277 -23.0972,15.6885 -2.2238,5.6607 -2.3048,12.7769 0.1617,17.0632 2.4665,4.2863 5.1558,5.2151 6.5914,4.9321 1.4356,-0.283 1.0918,-1.3949 0.7479,-1.7791 -0.3438,-0.3842 0.0205,-0.5658 0.9909,-0.1614 0.9704,0.4044 1.2534,1.1724 1.2534,1.1724 0,0 1.0511,0.8894 0.2427,2.5879 -0.8084,1.6984 -3.4776,1.6578 -3.4776,1.6578 0,0 0.3641,0.485 1.2535,0.849 0.8894,0.364 2.9922,0.8894 5.499,0.2427 2.5069,-0.6467 3.9229,-2.5273 3.5995,-4.9737 -0.3233,-2.4463 -1.8197,-1.4151 -2.2036,-1.1321 -0.3839,0.2831 -1.0918,-0.5055 -0.5459,-1.4352 0.5459,-0.9298 2.406,-1.7792 4.1445,-0.8088 1.7385,0.9704 4.0029,2.5879 4.1243,7.5206 0.1213,4.9327 -4.1647,7.6825 -4.1647,7.6825 0,0 1.5365,1.0918 2.8709,2.5879 1.3344,1.4961 2.0093,3.3156 2.0093,3.3156 z m 19.5428,-4.5489 c 0.3032,-0.849 0.9906,-1.8803 0.9906,-1.8803 0,0 -0.9096,0.7482 -2.163,1.2941 -1.2534,0.5459 -2.3048,0.6468 -2.3048,0.6468 0,0 0.7479,0.2833 1.5566,0.8897 0.8087,0.6064 1.3949,1.1522 1.3949,1.1522 0,0 0.2225,-1.2534 0.5257,-2.1025 z m -56.1327,-3.5769 c 0,0 -6.6715,1.2532 -9.1784,6.1458 -2.5068,4.8927 -1.4151,9.2591 0.5661,9.9871 1.9811,0.728 3.0934,-0.6972 2.891,-1.4857 -0.2023,-0.7886 -0.5562,-1.2131 -0.5562,-1.2131 0,0 3.3061,0.4652 2.6187,3.8819 -0.6874,3.4168 -5.1357,3.7407 -7.3595,2.487 -2.2238,-1.2537 -2.7899,-4.2863 -2.7899,-4.2863 0,0 -1.5364,0.0807 -1.2131,-3.1942 0.3234,-3.2749 3.1136,-7.6822 6.3482,-9.8657 3.2345,-2.1835 7.1162,-2.7092 8.6731,-2.4568 z m 17.3502,34.5287 c 3.5714,-5.1589 4.3648,-13.4203 -2.9922,-15.6273 l 1.6578,-1.9002 c 0,0 0.202,0.8491 0.6874,1.4151 0.4853,0.5661 1.9408,2.3452 4.852,1.9005 2.9112,-0.4447 3.8416,-2.447 3.4775,-4.9135 -0.364,-2.4665 -1.4355,-0.7882 -1.4355,-0.7882 0,0 0.6066,1.1119 -0.4851,1.5566 -1.0917,0.4447 -1.6376,-0.1617 -2.0016,-1.1321 -0.364,-0.9704 -0.4851,-4.7307 2.3451,-5.0137 2.8303,-0.283 5.9441,0.1617 6.1461,4.4477 0.2021,4.286 -1.7387,8.6126 -4.569,12.6962 -2.8302,4.0837 -7.6825,7.3589 -7.6825,7.3589 z m -0.3032,-30.9518 c -0.3032,-0.849 -0.9906,-1.8803 -0.9906,-1.8803 0,0 0.9096,0.7482 2.163,1.2941 1.2535,0.5459 2.3049,0.6468 2.3049,0.6468 0,0 -0.7479,0.2833 -1.5567,0.8897 -0.8087,0.6064 -1.3949,1.1522 -1.3949,1.1522 0,0 -0.2225,-1.2534 -0.5257,-2.1025 z"
     style="fill:#302209;fill-rule:evenodd;stroke:#1b1918;stroke-width:0.5669;stroke-linecap:butt;stroke-linejoin:miter;stroke-dasharray:none"
     id="path38" />
  <path
     d="M 346.7276,190.6963 H 91.6095 V 179.3577 H 80.2709 V 168.0191 H 91.6095 V 153.8459 H 80.2709 v -11.3386 h 11.3386 v -11.3386 h 31.1811 v -11.3386 h 11.3386 v 11.3386 h 11.3386 v -11.3386 h 11.3386 v 11.3386 h 11.3385 v -11.3386 h 11.3386 v 11.3386 h 11.3386 v -11.3386 h 11.3386 v 11.3386 h 11.3386 v -11.3386 h 11.3386 v 11.3386 h 11.3385 v -11.3386 h 11.3386 v 11.3386 h 11.3386 v -11.3386 h 11.3386 v 11.3386 h 11.3386 v -11.3386 h 11.3386 v 11.3386 h 11.3385 v -11.3386 h 11.3386 v 11.3386 h 31.1811 v 11.3386 h 11.3386 v 11.3386 h -11.3386 v 14.1732 h 11.3386 v 11.3386 h -11.3386 z"
     style="fill:none;stroke:#e30016;stroke-width:0.216;stroke-linecap:butt;stroke-linejoin:miter;stroke-dasharray:none"
     id="path40" />
</svg>
