**ABCDEFGHIJKLMNOPQRSTUVWXYZabcdefghijklmnopqrstuvwxyz**************************
**PARASOLID !"#$%&'()*+,-./:;<=>?@[\]^_`{|}~0123456789**************************
**PART1;
MC=AMD64;
MC_MODEL=Intel64 Family 6 Model 42 Stepping 7, GenuineIntel;
MC_ID=unknown;
OS=Windows_NT;
OS_RELEASE=unknown;
FRU=Parasolid Version 24.0, build 243,  7-11-2012;
APPL=SolidWorks 2012-2012278;
SITE=;
USER=unknown;
FORMAT=text;
GUISE=transmit;
KEY=3-4 Element;
FILE=3-4 Element.x_t;
DATE=Thu Apr 11 16:44:48 2013;
**PART2;
SCH=SCH_2400243_20000;
USFLD_SIZE=0;
**PART3;
**END_OF_HEADER*****************************************************************
T51 : TRANSMIT FILE created by modeller version 240024323 SCH_2400243_20000_1300
6186 0 12 27 CCCCCCCCCCCCCCCCCCCCCCCA16 index_map_offset0 0 1 dA9 index_map82 0
 A17 node_id_index_map82 0 A20 schema_embedding_map82 0 Z1 944 2 3 0 0 0 0 1e3 1
e-8 0 4 0 1 0 1 1 5 6 7 8 9 10 11 0 0 0 0 81 255 2 2 873 12 1 0 0 0 0 13 0 70 11
 CI9 list_type0 0 1 uI10 notransmit0 0 1 lCCCDCCDI12 finger_index0 0 1 dI12 fing
er_block1012 0 CZ3 0 4 T1 0 0 3 20 1 14 14 13 255 5 113 0 1 0 15 0 0 16 0 54 255
 6 224 0 17 18 0 0 --.00127 0 0 1 0 0 .0139593221465084 .00127 0 0 -1 31 255 7 3
95 0 10 19 0 0 --.0279050827654242 .01390001408815076 146400519235842e-32 .00890
735230958889 .999960328750512 -141616185953291e-30 -.999960328750512 .0089073523
0958889 0 .001257179753110982 29 255 8 388 0 11 20 0 -.02916221264464355 .013911
2122311282 3432550266862125e-33 19 255 9 117 0 1 16 0 21 V16 255 10 393 0 ?22 0
 23 7 0 0 1 18 255 11 385 0 24 0 25 8 ?1 17 255 24 0 26 27 27 11 28 29 0 22 -18
 25 359 0 30 11 31 20 ?1 17 30 0 32 33 34 25 35 36 0 37 -18 31 357 0 38 25 39 40
 ?1 29 20 361 0 25 40 8 -.02088222959693815 -.0119888 3432550266862125e-33 29 40
 358 0 31 41 20 -.02088222959693815 .0119888 3432550266862125e-33 29 41 356 0 39
 42 40 -.03342119644527595 -.01287359166418852 3432550266862125e-33 18 39 354 0
 35 31 43 41 ?1 29 42 353 0 43 44 41 -.03342119644527595 .01287359166418852 3432
550266862125e-33 18 43 352 0 45 39 46 42 ?1 29 44 428 0 46 0 42 -.02664795288620
485 .01388881594517332 3432550266862125e-33 18 46 410 0 27 43 0 44 ?1 17 27 0 26
 24 24 46 22 10 0 28 -15 255 26 417 0 27 47 0 17 22 0 32 45 48 11 27 10 0 49 +17
 28 0 50 38 49 46 24 29 0 48 +15 50 184 0 49 15 0 17 38 0 50 37 28 31 48 51 0 52
 +17 49 0 50 28 53 11 45 23 0 0 +16 29 407 0 ?28 54 0 55 0 0 1 17 48 0 32 22 33
 46 38 51 0 0 -15 32 365 0 48 56 0 17 33 0 32 48 30 31 57 58 0 0 -16 51 390 0 ?3
8 23 36 19 23 36 1 16 23 364 0 ?49 10 51 19 36 51 1 16 36 362 0 ?35 51 59 19 51
 23 1 31 19 363 0 36 60 7 0 +-.0280289 0 3432550266862125e-33 0 0 -1 -1 0 0 .013
9573 31 60 239 0 59 61 19 0 +-.001004475088967972 0 0 1 0 0 0 0 -1 .015201254721
82055 16 59 200 0 ?62 36 63 60 0 0 1 31 61 238 0 63 64 60 0 +-.01007768457333158
 0 0 1 0 0 0 0 -1 .01441288758246982 16 63 194 0 ?65 59 66 61 0 0 1 31 64 237 0
 66 67 61 0 +-.01607751188023245 0 0 1 0 0 0 0 -1 .0119888 16 66 188 0 ?68 63 58
 64 0 0 1 31 67 236 0 58 69 64 0 +-.02088222959693815 0 0 1 0 0 0 0 -1 .0119888
 16 58 182 0 ?57 66 70 67 70 70 1 31 69 235 0 71 72 67 0 +-.03342119644527595 0
 0 1 0 0 0 0 -1 .01287359166418852 16 71 176 0 ?34 70 73 69 73 73 1 31 72 234 0
 74 75 69 0 +-.033655 0 0 1 0 0 0 0 -1 .01252217423932442 16 74 170 0 ?76 73 77
 72 0 0 1 31 75 233 0 77 78 72 0 +-.033655 0 0 1 0 0 0 0 -1 .011811 16 77 164 0
 ?79 74 80 75 0 0 1 31 78 232 0 80 81 75 0 +-.0237465567884187 0 0 1 0 0 0 0 -1
 .011811 16 80 158 0 ?82 77 83 78 0 0 1 31 81 231 0 83 84 78 0 +-.020447 0 0 1 0
 0 0 0 -1 .009906 16 83 152 0 ?85 80 86 81 0 0 1 31 84 230 0 86 87 81 0 +-.01675
13 0 0 1 0 0 0 0 -1 .009906 16 86 146 0 ?88 83 89 84 0 0 1 31 87 229 0 89 90 84
 0 +-.0167513 0 0 1 0 0 0 0 -1 .00980578585209303 16 89 140 0 ?91 86 92 87 0 0 1
 31 90 228 0 92 93 87 0 +-.00941401280210629 0 0 1 0 0 0 0 -1 .0127702423065266
 16 92 134 0 ?94 89 95 90 0 0 1 31 93 227 0 95 96 90 0 +-.00106391092077027 0 0
 1 0 0 0 0 -1 .0133985 16 95 128 0 ?97 92 98 93 0 0 1 31 96 226 0 98 99 93 0 +10
13422347945062e-34 0 0 1 0 0 0 0 -1 .0133985 16 98 122 0 ?100 95 54 96 0 0 1 31
 99 225 0 54 55 96 0 +-385185988877447e-48 0 0 1 0 0 0 0 -1 .0139593221465084 16
 54 120 0 ?101 98 29 99 0 0 1 31 55 425 0 29 0 99 0 --.0279050827654242 .0139000
1408815076 146400519235842e-32 .00890735230958889 .999960328750512 -141616185953
291e-30 -.999960328750512 .00890735230958889 0 .001257179753110982 17 101 0 102
 101 101 0 103 54 0 0 +15 102 300 0 101 104 105 17 103 0 106 103 103 0 101 54 0
 0 -15 106 314 0 103 17 107 14 255 17 207 108 ?109 56 106 5 6 -0 0 109 56 21 15
 107 206 0 62 17 0 17 62 0 107 62 62 0 110 59 0 0 +17 110 0 111 110 110 0 62 59
 0 0 -15 111 202 0 110 109 0 14 109 203 112 ?113 17 114 5 18 +0 0 113 17 21 81 1
 112 929 115 109 116 0 108 117 118 14 113 197 117 ?119 109 120 5 121 +0 0 119 10
9 21 15 114 313 0 65 109 111 53 255 18 223 0 109 121 6 0 +-.0042545 0 5210259806
97241e-33 .0155448 1 0 0 0 0 -1 13 21 116 0 0 0 0 0 0 9 15 14 15 401 122 ?56 0 5
0 5 123 +56 56 56 0 21 81 1 122 931 115 15 124 0 117 125 126 14 56 396 125 ?17 1
5 32 5 123 +15 15 17 15 21 53 123 220 0 15 127 128 0 +-.0280289 0 34325502668621
25e-33 .0139573 1 0 0 0 0 -1 54 127 219 0 129 130 123 0 +-.033274 0 0 1 0 0 .012
52217423932442 381e-6 0 0 -1 51 255 128 221 0 119 123 121 0 +0 0 0 1 0 0 .011988
8 0 0 -1 14 119 191 131 ?129 113 132 5 128 +0 0 129 113 21 52 255 121 222 0 113
 128 18 0 +-.01007768457333158 0 0 1 0 0 .01441288758246982 .374606593415906 .92
718385456679 0 0 -1 81 1 131 933 115 119 133 0 125 134 135 14 129 179 134 ?136 1
19 137 5 127 +0 0 136 119 21 15 132 311 0 57 119 138 17 57 0 132 52 52 25 33 58
 0 0 +15 138 190 0 139 119 0 17 139 0 138 139 139 0 68 66 0 0 -17 68 0 120 68 68
 0 139 66 0 0 +15 120 312 0 68 113 140 15 140 196 0 141 113 0 17 141 0 140 141 1
41 0 65 63 0 0 -17 65 0 114 65 65 0 141 63 0 0 +17 52 0 132 57 57 31 37 70 0 33
 +17 37 0 50 35 38 25 52 70 0 57 -16 70 360 0 ?52 58 71 67 58 58 1 17 35 0 50 53
 37 39 30 36 0 142 +17 53 0 50 49 35 43 142 73 0 143 +17 142 0 144 143 143 39 53
 73 0 34 -15 144 178 0 143 129 0 17 143 0 144 142 142 43 34 71 0 0 -16 73 355 0
 ?53 71 74 69 71 71 1 17 34 0 32 30 45 39 143 71 0 0 +17 45 0 32 34 22 43 49 23
 0 53 -81 1 134 934 115 129 145 0 131 146 147 14 136 173 146 ?148 129 149 5 130
 +0 0 148 129 21 15 137 309 0 76 129 144 17 76 0 137 76 76 0 150 74 0 0 +17 150
 0 151 150 150 0 76 74 0 0 -15 151 172 0 150 136 0 81 1 146 935 115 136 152 0 13
4 153 154 14 148 167 153 ?155 136 156 5 157 +0 0 155 136 21 15 149 308 0 79 136
 151 50 255 130 218 0 136 157 127 0 +-.033655 0 3283702662765725e-31 -1 0 0 0 0
 1 51 157 217 0 148 158 130 0 -0 0 0 1 0 0 .011811 0 0 -1 52 158 216 0 155 159 1
57 0 --.0237465567884187 0 0 -1 0 0 .011811 .5 .866025403784438 0 0 1 14 155 161
 160 ?161 148 162 5 158 +0 0 161 148 21 51 159 215 0 161 163 158 0 -0 0 0 1 0 0
 .009906 0 0 -1 14 161 155 164 ?165 155 166 5 159 +0 0 165 155 21 50 163 214 0 1
65 167 159 0 +-.0167513 0 0 1 0 0 0 0 -1 14 165 149 168 ?169 161 170 5 163 -0 0
 169 161 21 52 167 213 0 169 171 163 0 --.0167513 0 0 1 0 0 .00980578585209303 .
3746065934159065 .92718385456679 0 0 -1 14 169 143 172 ?173 165 174 5 167 +0 0 1
73 165 21 53 171 212 0 173 175 167 0 +-.0042545 0 521025980697241e-33 .01377315
 1 0 0 0 0 -1 14 173 137 176 ?177 169 178 5 171 -0 0 177 169 21 51 175 211 0 177
 179 171 0 -0 0 0 1 0 0 .0133985 0 0 -1 14 177 131 180 ?104 173 181 5 175 +0 0 1
04 173 21 50 179 210 0 104 182 175 0 +50671117397253e-33 0 -455821675745472e-48
 1 0 0 0 0 -1 14 104 125 183 ?47 177 102 5 179 +0 0 47 177 21 53 182 423 0 47 0
 179 0 --.027813 .024237442 0 .010414 0 1 0 -1 0 0 14 47 415 184 ?0 104 26 5 182
 +0 0 0 104 21 81 1 184 944 115 47 185 0 183 0 186 80 255 1 115 187 188 9000 1 1
 1 1 1 1 1 1 0 FFFFTFTFFFFFFF1 81 1 185 891 189 47 0 184 190 0 191 81 1 183 943
 115 104 190 0 180 184 192 82 255 1 186 -1427373651 81 1 190 890 189 104 0 183 1
93 185 194 81 1 180 942 115 177 193 0 176 183 195 82 1 192 711917985 81 1 193 88
9 189 177 0 180 196 190 197 81 1 176 941 115 173 196 0 172 180 198 82 1 195 7125
73345 81 1 196 888 189 173 0 176 199 193 200 81 1 172 940 115 169 199 0 168 176
 201 82 1 198 713228705 81 1 199 887 189 169 0 172 202 196 203 81 1 168 939 115
 165 202 0 164 172 204 82 1 201 713884065 81 1 202 886 189 165 0 168 205 199 206
 81 1 164 938 115 161 205 0 160 168 207 82 1 204 714539425 81 1 205 885 189 161
 0 164 208 202 209 81 1 160 937 115 155 208 0 153 164 210 82 1 207 715194785 81
 1 208 884 189 155 0 160 211 205 212 81 1 153 936 115 148 211 0 146 160 213 82 1
 210 715850145 81 1 211 883 189 148 0 153 152 208 214 82 1 213 716505505 80 1 18
9 0 215 8001 0 0 0 0 3 5 0 0 0 FFFFTFTFFFFFFF2 81 1 152 882 189 136 0 146 145 21
1 216 83 255 3 214 0 0 .501960784313726 81 1 145 881 189 129 0 134 133 152 217 8
3 3 216 0 0 .501960784313726 81 1 133 880 189 119 0 131 218 145 219 83 3 217 0 0
 .501960784313726 81 1 218 879 189 113 0 117 116 133 220 83 3 219 0 0 .501960784
313726 81 1 117 930 115 113 218 0 112 122 221 81 1 116 878 189 109 0 112 222 218
 223 83 3 220 0 0 .501960784313726 81 1 222 877 189 17 0 108 224 116 225 83 3 22
3 0 0 .501960784313726 81 1 108 928 115 17 222 0 0 112 226 81 1 224 876 189 56 0
 125 124 222 227 83 3 225 0 0 .501960784313726 81 1 125 932 115 56 224 0 122 131
 228 81 1 124 875 189 15 0 122 0 224 229 83 3 227 0 0 .501960784313726 83 3 229
 0 0 .501960784313726 82 1 228 -1424162387 82 1 226 720830881 82 1 221 719782305
 79 255 15 215 SDL/TYSA_COLOUR83 3 212 0 0 .501960784313726 83 3 209 0 0 .501960
784313726 83 3 206 0 0 .501960784313726 83 3 203 0 0 .501960784313726 83 3 200 0
 0 .501960784313726 83 3 197 0 0 .501960784313726 83 3 194 0 0 .501960784313726
 83 3 191 0 0 .501960784313726 79 14 188 SWEntUnchanged15 181 301 0 100 177 230
 17 100 0 181 100 100 0 231 98 0 0 +15 230 130 0 232 177 0 17 232 0 230 232 232
 0 97 95 0 0 -17 97 0 233 97 97 0 232 95 0 0 +15 233 136 0 97 173 0 17 231 0 105
 231 231 0 100 98 0 0 -15 105 124 0 231 104 0 15 178 302 0 234 173 233 17 234 0
 178 234 234 0 94 92 0 0 -17 94 0 174 94 94 0 234 92 0 0 +15 174 303 0 94 169 23
5 15 235 142 0 236 169 0 17 236 0 235 236 236 0 91 89 0 0 -17 91 0 237 91 91 0 2
36 89 0 0 +15 237 148 0 91 165 0 15 170 304 0 238 165 237 17 238 0 170 238 238 0
 88 86 0 0 -17 88 0 166 88 88 0 238 86 0 0 +15 166 305 0 88 161 239 15 239 154 0
 240 161 0 17 240 0 239 240 240 0 85 83 0 0 -17 85 0 162 85 85 0 240 83 0 0 +15
 162 306 0 85 155 241 15 241 160 0 242 155 0 17 242 0 241 242 242 0 82 80 0 0 -1
7 82 0 156 82 82 0 242 80 0 0 +15 156 307 0 82 148 243 15 243 166 0 244 148 0 17
 244 0 243 244 244 0 79 77 0 0 -17 79 0 149 79 79 0 244 77 0 0 +82 1 154 7171608
65 82 1 147 717816226 82 1 135 719126946 82 1 126 -1422720595 82 1 118 720437665
 19 16 112 0 1 0 9 5 S74 4 CI16 index_map_offset0 0 1 dCCZ20 14 3 0 0 184 2 185
 0 0 0 0 0 0 0 0 0 0 0 0 0 0 0 0 0 80 2 12 245 246 8004 0 0 0 0 3 5 0 0 0 FFTFFF
FFFFFFFF2 3 83 1 13 1 79 16 246 SDL/TYSA_DENSITY1 0 
