solid OpenSCAD_Model
  facet normal -1 0 0
    outer loop
      vertex -37.5 15 32
      vertex -37.5 15 29
      vertex -37.5 0 32
    endloop
  endfacet
  facet normal -1 0 0
    outer loop
      vertex -37.5 0 32
      vertex -37.5 15 29
      vertex -37.5 0 29
    endloop
  endfacet
  facet normal 0 -1 0
    outer loop
      vertex -37.5 0 32
      vertex -37.5 0 29
      vertex 37.5 0 29
    endloop
  endfacet
  facet normal 0 -1 0
    outer loop
      vertex 37.5 0 32
      vertex -37.5 0 32
      vertex 37.5 0 29
    endloop
  endfacet
  facet normal 0 0 -1
    outer loop
      vertex -37.5 0 29
      vertex -37.5 15 29
      vertex 37.5 0 29
    endloop
  endfacet
  facet normal 0 0 -1
    outer loop
      vertex 37.5 0 29
      vertex -37.5 15 29
      vertex 37.5 15 29
    endloop
  endfacet
  facet normal 0 0 1
    outer loop
      vertex -37.5 15 32
      vertex -37.5 0 32
      vertex 37.5 0 32
    endloop
  endfacet
  facet normal 0 0 1
    outer loop
      vertex 37.5 15 32
      vertex -37.5 15 32
      vertex 37.5 0 32
    endloop
  endfacet
  facet normal 0 1 0
    outer loop
      vertex -37.5 15 29
      vertex -37.5 15 32
      vertex 37.5 15 29
    endloop
  endfacet
  facet normal 0 1 0
    outer loop
      vertex 37.5 15 29
      vertex -37.5 15 32
      vertex 37.5 15 32
    endloop
  endfacet
  facet normal 1 0 0
    outer loop
      vertex 37.5 0 32
      vertex 37.5 0 29
      vertex 37.5 15 29
    endloop
  endfacet
  facet normal 1 0 0
    outer loop
      vertex 37.5 15 32
      vertex 37.5 0 32
      vertex 37.5 15 29
    endloop
  endfacet
endsolid OpenSCAD_Model
