<?xml version="1.0" encoding="UTF-8" standalone="no"?>
<!-- Created with Inkscape (http://www.inkscape.org/) -->

<svg
   xmlns:dc="http://purl.org/dc/elements/1.1/"
   xmlns:cc="http://creativecommons.org/ns#"
   xmlns:rdf="http://www.w3.org/1999/02/22-rdf-syntax-ns#"
   xmlns:svg="http://www.w3.org/2000/svg"
   xmlns="http://www.w3.org/2000/svg"
   xmlns:sodipodi="http://sodipodi.sourceforge.net/DTD/sodipodi-0.dtd"
   xmlns:inkscape="http://www.inkscape.org/namespaces/inkscape"
   width="40.026897mm"
   height="25.668016mm"
   viewBox="0 0 141.82759 90.949664"
   id="svg4149"
   version="1.1"
   inkscape:version="0.91 r"
   sodipodi:docname="mc_blinklys_beslag.svg">
  <defs
     id="defs4151" />
  <sodipodi:namedview
     id="base"
     pagecolor="#ffffff"
     bordercolor="#666666"
     borderopacity="1.0"
     inkscape:pageopacity="0.0"
     inkscape:pageshadow="2"
     inkscape:zoom="2.8"
     inkscape:cx="131.98336"
     inkscape:cy="11.550978"
     inkscape:document-units="px"
     inkscape:current-layer="layer1"
     showgrid="false"
     fit-margin-top="0"
     fit-margin-left="0"
     fit-margin-right="0"
     fit-margin-bottom="0"
     showguides="false"
     inkscape:window-width="990"
     inkscape:window-height="779"
     inkscape:window-x="288"
     inkscape:window-y="19"
     inkscape:window-maximized="1" />
  <metadata
     id="metadata4154">
    <rdf:RDF>
      <cc:Work
         rdf:about="">
        <dc:format>image/svg+xml</dc:format>
        <dc:type
           rdf:resource="http://purl.org/dc/dcmitype/StillImage" />
        <dc:title></dc:title>
      </cc:Work>
    </rdf:RDF>
  </metadata>
  <g
     inkscape:label="Layer 1"
     inkscape:groupmode="layer"
     id="layer1"
     transform="translate(-69.086202,-238.31613)">
    <path
       style="fill:#000000;fill-opacity:1"
       d="m 95.999226,329.21752 c -0.40631,-0.0879 -2.63701,-1.27872 -4.08071,-2.17849 -6.25537,-3.89857 -11.64105,-9.53897 -15.56004,-16.29596 -0.96907,-1.67086 -2.59438,-4.99808 -3.3075,-6.77092 -3.87852,-9.64214 -4.9687,-20.55992 -3.01719,-30.21615 2.56369,-12.68537 10.17618,-24.25116 20.66052,-31.38995 1.83733,-1.25103 3.09512,-1.97223 4.08273,-2.34095 0.73455,-0.27424 1.01141,-0.3245 1.8343,-0.333 0.84778,-0.009 1.03944,0.0235 1.53026,0.25783 1.31944,0.62982 2.111824,1.73426 3.638014,5.07072 1.19549,2.61352 1.75185,3.59193 2.55558,4.49421 1.05369,1.18289 1.78995,1.39197 4.87533,1.38446 2.03484,-0.005 2.27648,-0.0294 6.52913,-0.66185 3.64931,-0.54268 4.95728,-0.64721 7.09298,-0.56688 1.4854,0.0559 1.86529,0.0402 2.24439,-0.0924 1.13372,-0.39673 2.06284,-1.35917 2.62929,-2.7236 0.17019,-0.40994 0.5649,-1.7008 0.87712,-2.86857 0.88965,-3.3274 1.61567,-4.58363 3.01091,-5.20978 1.41143,-0.63341 2.23674,-0.62013 5.29678,0.0852 1.32804,0.30612 4.38866,0.99144 6.80138,1.52293 8.17997,1.80193 11.40672,2.63045 12.27906,3.15286 1.28653,0.77044 2.07014,2.18156 2.363,4.25527 0.0594,0.42082 0.15143,1.88988 0.20445,3.26456 0.053,1.37469 0.14566,2.85927 0.20585,3.29906 0.39941,2.918 1.75119,4.29592 4.5613,4.64953 1.00154,0.12603 1.98996,0.4513 5.22765,1.72036 4.42332,1.73379 6.10374,2.21683 8.11646,2.33309 2.03985,0.11784 3.40282,-0.35836 4.57147,-1.59719 0.83878,-0.88916 1.37905,-1.98059 1.74173,-3.51865 0.17896,-0.75891 0.43555,-1.46897 0.79265,-2.19338 1.42416,-2.88921 4.40878,-4.46207 7.75834,-4.08858 2.34093,0.26103 4.31344,1.17095 6.3983,2.95154 0.4366,0.37288 1.21613,1.02133 1.73229,1.44101 1.19704,0.97327 3.21061,3.03789 4.18084,4.28682 2.76105,3.55418 4.7377,7.70715 5.92389,12.44616 0.85316,3.40848 1.17157,6.18548 1.16388,10.15076 -0.008,4.0023 -0.3629,6.98024 -1.27144,10.66085 -1.21257,4.91229 -2.77243,8.31729 -5.44463,11.88506 -1.19472,1.59515 -3.726,4.13247 -5.26253,5.27512 -3.58433,2.66551 -6.98884,4.04236 -9.05438,3.66177 -2.04754,-0.37727 -3.10429,-1.54052 -5.07445,-5.58582 -0.5862,-1.20362 -1.31637,-2.5728 -1.62263,-3.04262 -0.72178,-1.10733 -1.65152,-2.01004 -2.50095,-2.42827 l -0.66739,-0.32861 -2.24662,0.002 c -2.0543,10e-4 -2.35657,0.0253 -3.5308,0.27779 -2.78702,0.59932 -5.30332,1.59684 -10.18167,4.03624 -3.47162,1.73597 -3.37592,1.66602 -3.79596,2.77456 -0.3944,1.04085 -0.59736,2.47202 -0.75654,5.33469 -0.0849,1.52664 -0.22093,3.18889 -0.30231,3.69388 -0.45987,2.85362 -1.77068,4.52461 -4.20782,5.36403 -0.32405,0.11162 -1.11712,0.29575 -1.76239,0.40919 -1.78014,0.31295 -3.91783,0.89374 -7.29426,1.98177 -5.40596,1.74203 -7.29562,2.13452 -10.25278,2.12955 -0.98192,-0.002 -2.05906,-0.0574 -2.39364,-0.12399 -0.86635,-0.17231 -1.76447,-0.62865 -2.31211,-1.1748 -0.88636,-0.88396 -1.30153,-1.90013 -2.27824,-5.57623 -0.64662,-2.43373 -1.36492,-3.56306 -2.63278,-4.13933 -0.89058,-0.40479 -2.28695,-0.46359 -3.57658,-0.15061 -2.21844,0.5384 -3.69851,0.50181 -7.77128,-0.19211 -1.29053,-0.21988 -2.82844,-0.45529 -3.41759,-0.52313 -1.26239,-0.14536 -3.05431,-0.0737 -3.92769,0.15707 -1.28685,0.34003 -2.85917,1.2705 -3.57607,2.11625 -0.41089,0.48475 -0.88355,1.56833 -1.36964,3.13993 -1.18616,3.83505 -1.55274,4.6832 -2.40156,5.55658 -0.710474,0.73101 -1.556634,1.08167 -2.723454,1.1286 -0.52095,0.021 -1.10786,0.003 -1.30425,-0.0391 z m 22.535914,-25.92578 c 0.42632,-0.10935 1.07354,-0.31707 1.43825,-0.4616 1.15002,-0.45571 3.75742,-1.23957 7.31875,-2.20022 6.36485,-1.71687 8.46764,-2.42677 11.29948,-3.81465 2.13864,-1.04815 3.70194,-2.07423 4.85775,-3.18844 3.51096,-3.38458 5.02716,-8.89275 3.81662,-13.8654 -1.37125,-5.63284 -5.25209,-9.02965 -12.80609,-11.20888 -0.8697,-0.2509 -3.27987,-0.85182 -5.35593,-1.33538 -4.21307,-0.98132 -6.23884,-1.55451 -8.05518,-2.27922 -1.49715,-0.59735 -2.44967,-0.82262 -3.47823,-0.82262 -3.4067,0 -6.03442,2.92695 -7.43827,8.28531 -0.37068,1.41481 -0.9346,4.69033 -1.24327,7.22137 -0.25495,2.09065 -0.25573,6.91155 -0.001,8.97756 0.62995,5.1182 2.12747,9.42609 4.5453,13.07538 0.98218,1.48244 1.11026,1.58841 2.20477,1.82415 0.58321,0.12561 1.99269,0.0247 2.8975,-0.20736 z"
       id="path3338"
       inkscape:connector-curvature="0" />
  </g>
</svg>
