<?xml version="1.0" encoding="UTF-8" standalone="no"?>
<!-- Created with Inkscape (http://www.inkscape.org/) -->

<svg
   xmlns:dc="http://purl.org/dc/elements/1.1/"
   xmlns:cc="http://creativecommons.org/ns#"
   xmlns:rdf="http://www.w3.org/1999/02/22-rdf-syntax-ns#"
   xmlns:svg="http://www.w3.org/2000/svg"
   xmlns="http://www.w3.org/2000/svg"
   xmlns:sodipodi="http://sodipodi.sourceforge.net/DTD/sodipodi-0.dtd"
   xmlns:inkscape="http://www.inkscape.org/namespaces/inkscape"
   width="196.62335mm"
   height="36.315784mm"
   viewBox="0 0 696.69692 128.67798"
   id="svg3350"
   version="1.1"
   inkscape:version="0.91 r"
   sodipodi:docname="grove.svg">
  <defs
     id="defs3352" />
  <sodipodi:namedview
     id="base"
     pagecolor="#ffffff"
     bordercolor="#666666"
     borderopacity="1.0"
     inkscape:pageopacity="0.0"
     inkscape:pageshadow="2"
     inkscape:zoom="0.35"
     inkscape:cx="1167.4358"
     inkscape:cy="-329.1855"
     inkscape:document-units="px"
     inkscape:current-layer="layer1"
     showgrid="false"
     inkscape:window-width="1440"
     inkscape:window-height="848"
     inkscape:window-x="0"
     inkscape:window-y="0"
     inkscape:window-maximized="1"
     fit-margin-top="0"
     fit-margin-left="0"
     fit-margin-right="0"
     fit-margin-bottom="0" />
  <metadata
     id="metadata3355">
    <rdf:RDF>
      <cc:Work
         rdf:about="">
        <dc:format>image/svg+xml</dc:format>
        <dc:type
           rdf:resource="http://purl.org/dc/dcmitype/StillImage" />
        <dc:title></dc:title>
      </cc:Work>
    </rdf:RDF>
  </metadata>
  <g
     inkscape:label="Layer 1"
     inkscape:groupmode="layer"
     id="layer1"
     transform="translate(-18.79441,-74.498739)">
    <path
       style="fill:#000000"
       d="m 339.52889,202.32175 c -27.40225,-5.0033 -43.92339,-24.53479 -43.91304,-51.91451 0.008,-20.54314 7.63502,-38.94222 22.13363,-53.392547 11.18486,-11.1476 23.62942,-17.89254 39.33076,-21.31723 7.80944,-1.70335 23.93407,-1.56904 31.26565,0.26043 11.23312,2.80303 19.34501,7.34568 26.97821,15.10778 8.58483,8.72981 13.30523,20.302837 13.9922,34.304767 1.01051,20.59662 -7.22329,41.65152 -22.0302,56.3341 -10.70291,10.61303 -25.66585,18.12513 -41.07712,20.62263 -7.00317,1.13492 -20.44959,1.13218 -26.68009,-0.005 z M 365.114,173.37476 c 7.42867,-1.57162 15.71267,-6.83879 20.51069,-13.04117 12.31156,-15.91512 12.11887,-39.05281 -0.411,-49.35193 -4.42907,-3.64055 -8.97922,-5.21993 -15.99383,-5.55153 -10.72484,-0.50701 -18.50217,2.57659 -26.48371,10.5004 -3.92672,3.89832 -5.47194,5.99624 -7.70948,10.46702 -3.79649,7.58569 -4.95192,13.05668 -4.58326,21.702 0.20599,4.83061 0.64709,7.70278 1.53017,9.96346 2.73782,7.00876 8.57856,12.49625 15.73272,14.78121 4.16217,1.32934 12.43952,1.58161 17.4077,0.53054 z m -306.239237,28.0564 c -12.40398,-0.95182 -20.07825,-4.21552 -27.7362,-11.79558 -5.64769,-5.59026 -8.66663,-10.82397 -10.6937,-18.53889 -1.60352,-6.10291 -2.13915,-18.13909 -1.15819,-26.02551 4.41687,-35.50915 18.55608,-56.697847 43.37178,-64.995967 10.23395,-3.42213 12.28597,-3.57018 53.270927,-3.84344 36.90778,-0.24607 37.88427,-0.22277 37.88427,0.90419 0,0.63622 -0.81991,7.43592 -1.82202,15.11045 -1.0021,7.67452 -1.82369,14.159067 -1.82574,14.410107 -0.002,0.25104 -16.0112,0.45644 -35.57587,0.45644 -23.846167,0 -36.635207,0.22387 -38.797137,0.67914 -13.07989,2.75443 -19.30045,12.7769 -22.16983,35.71973 -2.2807,18.2359 1.54241,26.00144 13.83419,28.10017 2.37192,0.40499 10.53218,0.59644 20.8813,0.48989 l 16.987837,-0.17488 1.3857,-6.9987 c 0.76214,-3.84929 1.40194,-7.75183 1.42179,-8.67231 l 0.0361,-1.6736 -19.669367,0 -19.66935,0 1.99532,-14.68227 c 1.09742,-8.07525 2.10006,-14.78701 2.22808,-14.91502 0.12801,-0.12802 16.78111,-0.16215 37.006867,-0.0759 l 36.77413,0.1569 -4.68033,31.64629 c -2.57418,17.40546 -5.14178,34.72724 -5.70579,38.49285 l -1.02546,6.84656 -35.38388,-0.0885 c -19.461127,-0.0487 -37.985567,-0.28816 -41.165417,-0.53216 z m 99.530117,-1.05292 c 0.1654,-0.92048 4.27031,-28.64902 9.12203,-61.61899 4.85172,-32.96996 8.95963,-60.561567 9.12869,-61.314687 l 0.30737,-1.36931 34.23715,0 c 20.41366,0 36.31931,0.25989 39.39413,0.64369 15.7151,1.96156 26.04297,10.25786 30.78669,24.730697 1.66418,5.07733 1.755,5.90286 1.72754,15.70493 -0.0267,9.54892 -0.15432,10.72195 -1.65607,15.2274 -3.53861,10.61628 -10.65414,18.90775 -19.63564,22.88069 -1.49508,0.66135 -2.71833,1.37147 -2.71833,1.57806 0,0.45282 7.48561,14.81571 16.51819,31.694 3.63437,6.79119 6.60795,12.61076 6.60795,12.93238 0,0.3615 -7.2804,0.58475 -19.06961,0.58475 l -19.06961,0 -8.4352,-20.69181 -8.43519,-20.69181 -13.83046,0 -13.83046,0 -0.35178,1.6736 c -0.37656,1.79146 -5.82586,38.48854 -5.82892,39.25358 -9.8e-4,0.25104 -7.93699,0.45644 -17.63551,0.45644 l -17.63369,0 0.30073,-1.67361 z m 83.31298,-65.82851 c 4.64538,-1.85287 8.90054,-6.021 10.28012,-10.06984 0.57362,-1.68347 1.01463,-4.86279 1.01463,-7.31458 0,-3.74761 -0.24163,-4.71782 -1.77852,-7.14125 -1.97314,-3.11132 -5.24826,-5.28582 -10.39313,-6.90047 -4.56194,-1.4317 -34.49305,-2.11046 -34.98622,-0.79339 -0.1703,0.45483 -1.23345,8.08432 -2.36256,16.95441 -1.48744,11.68521 -1.86488,16.25701 -1.37027,16.59783 0.37545,0.25872 8.62464,0.38917 18.33153,0.2899 16.92337,-0.17309 17.79753,-0.2398 21.26442,-1.62261 z m 236.77165,66.74139 C 477.92853,199.70502 441.72238,79.221623 441.29493,77.518533 l -0.36224,-1.44328 19.72398,0 19.72397,0 10.3147,37.731367 c 5.67308,20.75227 10.46669,37.73172 10.65248,37.73212 0.18579,4.1e-4 10.0633,-16.91024 21.94999,-37.57923 l 21.61218,-37.579967 19.58579,-0.16058 c 11.24763,-0.0922 19.5858,0.0714 19.5858,0.38442 0,0.29975 -6.39421,11.32649 -14.20934,24.503877 -7.81512,13.17739 -23.85858,40.25369 -35.65208,60.16955 -11.7935,19.91587 -22.10878,37.23765 -22.92282,38.49285 l -1.48012,2.28219 -15.52933,0 c -11.87424,0 -15.59266,-0.17905 -15.79838,-0.76073 z m 107.57804,-2.73862 c 0.3079,-1.92465 4.71696,-30.20092 9.79794,-62.83616 l 9.23804,-59.336797 55.21592,-0.15537 c 52.31772,-0.14721 55.21365,-0.0993 55.17144,0.91288 -0.0243,0.58753 -0.92105,7.0932 -1.99231,14.45705 l -1.94775,13.388817 -37.79907,0.15673 -37.79908,0.15672 -1.59225,8.239 c -0.87577,4.53145 -1.59224,8.63732 -1.59224,9.12416 0,0.76432 4.81885,0.88516 35.29779,0.88516 19.4138,0 35.30555,0.2054 35.31489,0.45644 0.009,0.25104 -0.87207,6.82373 -1.9589,14.60598 l -1.97605,14.14954 -35.45735,0 -35.45729,0 -0.3114,1.36932 c -0.35083,1.54244 -2.75468,17.92597 -2.75468,18.77444 0,0.31913 15.78093,0.54805 37.78051,0.54805 l 37.78044,0 -0.33628,1.67361 c -0.18501,0.92047 -1.17364,6.74005 -2.19703,12.93238 -1.0234,6.19232 -1.99445,11.87496 -2.15799,12.62809 l -0.29723,1.36931 -55.26497,0 -55.26494,0 0.55984,-3.49935 z m -84.06431,-58.9589 c -0.67914,-2.6023 -9.62976,-36.20009 -13.83454,-51.930467 -1.47264,-5.50924 -2.67753,-10.23336 -2.67753,-10.49805 0,-0.26469 12.21616,-0.48125 27.14704,-0.48125 21.48862,0 27.08612,0.15879 26.85471,0.76183 -0.38384,1.00031 -35.05509,61.885327 -36.08352,63.365107 -0.72669,1.04559 -0.8416,0.94611 -1.40616,-1.21717 z"
       id="path3338"
       inkscape:connector-curvature="0" />
  </g>
</svg>
