<?xml version="1.0" encoding="UTF-8" standalone="no"?>
<!-- Created with Inkscape (http://www.inkscape.org/) -->

<svg
   xmlns:dc="http://purl.org/dc/elements/1.1/"
   xmlns:cc="http://creativecommons.org/ns#"
   xmlns:rdf="http://www.w3.org/1999/02/22-rdf-syntax-ns#"
   xmlns:svg="http://www.w3.org/2000/svg"
   xmlns="http://www.w3.org/2000/svg"
   xmlns:sodipodi="http://sodipodi.sourceforge.net/DTD/sodipodi-0.dtd"
   xmlns:inkscape="http://www.inkscape.org/namespaces/inkscape"
   width="196.62335mm"
   height="36.315784mm"
   viewBox="0 0 696.69692 128.67798"
   id="svg3350"
   version="1.1"
   inkscape:version="0.91 r"
   sodipodi:docname="grove_outline.svg">
  <defs
     id="defs3352" />
  <sodipodi:namedview
     id="base"
     pagecolor="#ffffff"
     bordercolor="#666666"
     borderopacity="1.0"
     inkscape:pageopacity="0.0"
     inkscape:pageshadow="2"
     inkscape:zoom="0.98994949"
     inkscape:cx="388.13293"
     inkscape:cy="93.955127"
     inkscape:document-units="px"
     inkscape:current-layer="layer1"
     showgrid="false"
     inkscape:window-width="1278"
     inkscape:window-height="779"
     inkscape:window-x="0"
     inkscape:window-y="19"
     inkscape:window-maximized="1"
     fit-margin-top="0"
     fit-margin-left="0"
     fit-margin-right="0"
     fit-margin-bottom="0" />
  <metadata
     id="metadata3355">
    <rdf:RDF>
      <cc:Work
         rdf:about="">
        <dc:format>image/svg+xml</dc:format>
        <dc:type
           rdf:resource="http://purl.org/dc/dcmitype/StillImage" />
        <dc:title></dc:title>
      </cc:Work>
    </rdf:RDF>
  </metadata>
  <g
     inkscape:label="Layer 1"
     inkscape:groupmode="layer"
     id="layer1"
     transform="translate(-18.79441,-74.498739)">
    <path
       style="color:#000000;font-style:normal;font-variant:normal;font-weight:normal;font-stretch:normal;font-size:medium;line-height:normal;font-family:sans-serif;text-indent:0;text-align:start;text-decoration:none;text-decoration-line:none;text-decoration-style:solid;text-decoration-color:#000000;letter-spacing:normal;word-spacing:normal;text-transform:none;direction:ltr;block-progression:tb;writing-mode:lr-tb;baseline-shift:baseline;text-anchor:start;white-space:normal;clip-rule:nonzero;display:inline;overflow:visible;visibility:visible;opacity:1;isolation:auto;mix-blend-mode:normal;color-interpolation:sRGB;color-interpolation-filters:linearRGB;solid-color:#000000;solid-opacity:1;fill-opacity:1;fill-rule:nonzero;stroke:none;stroke-width:1;stroke-linecap:butt;stroke-linejoin:miter;stroke-miterlimit:4;stroke-dasharray:none;stroke-dashoffset:0;stroke-opacity:1;color-rendering:auto;image-rendering:auto;shape-rendering:auto;text-rendering:auto;enable-background:accumulate"
       d="m 372.89258,73.988281 c -5.94233,-0.04912 -11.94057,0.353176 -15.91797,1.220703 -15.78115,3.442097 -28.33335,10.243855 -39.57813,21.451172 -14.58681,14.538244 -22.2732,33.079314 -22.28125,53.746094 -0.0104,27.43705 16.57735,47.13594 43.91407,52.30078 l 0,0.0312 0.41015,0.0762 c 6.35537,1.15997 19.74655,1.15697 26.84961,0.006 15.51711,-2.51465 30.56502,-10.06574 41.34961,-20.75976 14.91081,-14.78561 23.19558,-35.96879 22.17774,-56.71485 C 429.1246,111.24527 424.35517,99.536836 415.67969,90.714844 407.9907,82.896011 399.76818,78.292719 388.4668,75.472656 384.72025,74.53777 378.83491,74.037397 372.89258,73.988281 Z m -0.002,1.029297 c 5.90525,0.04957 11.74896,0.531198 15.33399,1.425781 11.16486,2.785997 19.16478,7.267289 26.74219,14.972657 8.49418,8.637624 13.16747,20.075084 13.84961,33.978514 1.00317,20.44719 -7.1798,41.37552 -21.88282,55.95508 -10.62123,10.53203 -25.49925,18.00403 -40.80468,20.48437 -6.90328,1.11874 -20.40413,1.11049 -26.50977,-0.004 -27.211,-4.96838 -43.51418,-24.24338 -43.50391,-51.42188 0.008,-20.4195 7.57593,-38.67664 21.98633,-53.039059 11.12495,-11.087883 23.46441,-17.776311 39.08594,-21.183594 3.83204,-0.835823 9.79788,-1.217539 15.70312,-1.167969 z m -196.32812,0.558594 -0.39453,1.759766 c -0.0226,0.100668 -0.0431,0.227106 -0.084,0.480468 -0.0409,0.253363 -0.095,0.604748 -0.16406,1.050782 -0.13816,0.892066 -0.33182,2.159455 -0.57422,3.763671 -0.48479,3.208433 -1.16487,7.759557 -1.99218,13.316407 -1.65464,11.113704 -3.89442,26.253064 -6.32032,42.738284 -2.42584,16.48486 -4.66502,31.65989 -6.31836,42.82812 -0.82666,5.58412 -1.50833,10.16634 -1.99218,13.41016 -0.48386,3.24382 -0.78281,5.21087 -0.81055,5.36523 l -0.40625,2.26367 18.23242,0 c 4.85279,0 9.26382,-0.0519 12.4668,-0.13476 1.60149,-0.0414 2.89997,-0.0913 3.80664,-0.14649 0.45333,-0.0276 0.80761,-0.0556 1.06445,-0.0879 0.12842,-0.0161 0.22911,-0.0316 0.32813,-0.0566 0.0495,-0.0125 0.0967,-0.0245 0.17187,-0.0625 0.0376,-0.019 0.0842,-0.0426 0.14649,-0.10547 0.0623,-0.0628 0.14973,-0.19277 0.15039,-0.36132 -2e-4,0.0483 0.004,-0.0337 0.0137,-0.1211 0.01,-0.0874 0.025,-0.21109 0.0449,-0.36523 0.0398,-0.30829 0.097,-0.74009 0.17188,-1.2793 0.14979,-1.07841 0.36452,-2.58169 0.62304,-4.36914 0.51704,-3.5749 1.2112,-8.28871 1.91602,-13.03516 0.70482,-4.74644 1.42064,-9.52523 1.98437,-13.22851 0.28187,-1.85164 0.52612,-3.43445 0.71094,-4.60938 0.18482,-1.17492 0.31682,-1.96995 0.35352,-2.14453 l 0.26757,-1.27734 13.42579,0 13.49414,0 8.30859,20.38086 8.5625,21.0039 19.4043,0 c 5.89776,0 10.66977,-0.0569 13.97265,-0.1582 1.65145,-0.0506 2.93289,-0.11239 3.81641,-0.18555 0.44176,-0.0366 0.78138,-0.0746 1.03516,-0.12109 0.12689,-0.0232 0.22962,-0.0457 0.33984,-0.0879 0.0551,-0.0211 0.11428,-0.0438 0.19336,-0.10547 0.0791,-0.0617 0.21289,-0.20665 0.21289,-0.42773 0,-0.21272 -0.0359,-0.21694 -0.0644,-0.29492 -0.0285,-0.078 -0.0648,-0.16654 -0.11133,-0.27344 -0.093,-0.21382 -0.22521,-0.49795 -0.39453,-0.84961 -0.33865,-0.70333 -0.82588,-1.67555 -1.42578,-2.84961 -1.1998,-2.34812 -2.85343,-5.50243 -4.67188,-8.90039 -4.51556,-8.43779 -8.64334,-16.24723 -11.64258,-22.00195 -1.49961,-2.87737 -2.71761,-5.24201 -3.55859,-6.91211 -0.42049,-0.83505 -0.74768,-1.49671 -0.9668,-1.95899 -0.0956,-0.2016 -0.16058,-0.34665 -0.21289,-0.4668 0.11166,-0.0815 0.26342,-0.18321 0.47266,-0.30468 0.47009,-0.2729 1.13796,-0.6093 1.87109,-0.9336 9.12752,-4.03753 16.32875,-12.44674 19.90625,-23.17968 1.5073,-4.52209 1.65688,-5.83151 1.6836,-15.38477 0.0275,-9.80524 -0.0864,-10.77582 -1.75391,-15.86328 -4.79301,-14.623206 -15.3389,-23.090627 -31.19922,-25.070314 -1.62879,-0.203306 -6.33155,-0.355737 -13.24805,-0.46875 -6.91649,-0.113013 -16.00003,-0.177734 -26.20898,-0.177734 l -34.63672,0 z m 263.72852,0 0.51953,2.064453 c 0.0434,0.17304 0.19733,0.696764 0.48633,1.673828 0.28899,0.977064 0.70073,2.359375 1.21679,4.089844 1.03213,3.460938 2.48321,8.311888 4.21485,14.091797 3.46326,11.559816 8.04719,26.829606 12.63476,42.095706 4.58758,15.2661 9.1802,30.52902 12.66016,42.07422 1.73998,5.77259 3.20144,10.61643 4.24609,14.0664 0.52233,1.72499 0.94002,3.1016 1.23633,4.07227 0.29631,0.97067 0.45172,1.48269 0.51172,1.65234 0.10331,0.29211 0.32567,0.40883 0.5293,0.49414 0.20362,0.0853 0.44005,0.14437 0.74218,0.19727 0.60426,0.10579 1.46969,0.18103 2.69922,0.24023 2.45906,0.11841 6.3592,0.16406 12.29883,0.16406 l 15.80273,0 1.62696,-2.51171 c 0.45373,-0.69963 3.19845,-5.28634 7.35351,-12.26368 4.15507,-6.97733 9.68315,-16.28785 15.58008,-26.24609 11.79344,-19.91576 27.83736,-46.99082 35.65234,-60.16797 3.90826,-6.589863 7.46045,-12.642498 10.03711,-17.085936 1.28834,-2.221719 2.33314,-4.040932 3.05664,-5.326172 0.36176,-0.64262 0.64253,-1.151551 0.83594,-1.513672 0.0967,-0.181061 0.17066,-0.324357 0.22461,-0.435547 0.027,-0.05559 0.0492,-0.103649 0.0684,-0.150391 0.0192,-0.04674 0.0566,-0.01647 0.0566,-0.248046 0,-0.28726 -0.19125,-0.411764 -0.27148,-0.458985 -0.0802,-0.04722 -0.13334,-0.06253 -0.1875,-0.07813 -0.10834,-0.03118 -0.21625,-0.04955 -0.35352,-0.06836 -0.27453,-0.03762 -0.65152,-0.07026 -1.13672,-0.09961 -0.97039,-0.0587 -2.3682,-0.104348 -4.11719,-0.138672 -3.49796,-0.06865 -8.39618,-0.08714 -14.02343,-0.04102 l -19.87305,0.164062 -21.75391,37.828128 c -5.94288,10.33369 -11.38374,19.72734 -15.36132,26.53711 -1.98879,3.40488 -3.61358,6.16448 -4.75,8.07031 -0.54485,0.91373 -0.9611,1.6029 -1.26758,2.09961 -0.15446,-0.49331 -0.34747,-1.12842 -0.60352,-1.99805 -0.56317,-1.91276 -1.35717,-4.6831 -2.32226,-8.10156 -1.9302,-6.83693 -4.54657,-16.26949 -7.38282,-26.64453 l -10.41601,-38.097658 -20.10547,0 -20.36523,0 z m -291.56641,0.09375 c -4.87691,-0.116397 -14.3448,-0.06054 -32.79883,0.0625 C 95.432756,75.869056 84.674021,75.973358 77.726562,76.474609 70.779104,76.975861 67.62445,77.887998 62.5,79.601562 37.495696,87.96275 23.221012,109.39509 18.791016,145.00977 c -0.991404,7.97038 -0.467704,19.98213 1.169922,26.21484 2.043952,7.77917 5.130905,13.12827 10.826171,18.76562 7.72565,7.64708 15.573598,10.98217 28.048829,11.93946 l 0.230468,0.0176 0.01172,-0.0117 c 1.746175,0.12429 6.928659,0.23911 14.267578,0.33398 7.463498,0.0965 16.961142,0.16901 26.693357,0.19336 l 35.81641,0.0898 1.08789,-7.27343 c 0.56435,-3.76791 3.13283,-21.08858 5.70703,-38.49414 l 4.76367,-32.2168 -37.34961,-0.1582 c -10.113742,-0.0431 -19.335836,-0.0567 -26.044919,-0.043 -3.354541,0.007 -6.080624,0.0192 -7.978515,0.0391 -0.948946,0.01 -1.689137,0.022 -2.201172,0.0352 -0.256018,0.007 -0.454545,0.0137 -0.597656,0.0215 -0.07156,0.004 -0.127667,0.008 -0.179688,0.0137 -0.02601,0.003 -0.05074,0.005 -0.08594,0.0117 -0.0176,0.003 -0.03746,0.008 -0.07227,0.0195 -0.0174,0.006 -0.0392,0.0119 -0.07031,0.0273 -0.03111,0.0154 -0.132312,0.0952 -0.132812,0.0957 -0.168261,0.16825 -0.121563,0.18583 -0.134766,0.22461 -0.0132,0.0388 -0.022,0.0707 -0.03125,0.10742 -0.0185,0.0735 -0.03678,0.16112 -0.05859,0.27149 -0.04363,0.22073 -0.0971,0.52865 -0.162109,0.91796 -0.130018,0.77862 -0.301744,1.88303 -0.503906,3.23633 -0.404325,2.7066 -0.929559,6.40392 -1.478516,10.44336 l -2.074219,15.25 20.242188,0 19.16016,0 -0.0254,1.16406 c -0.008,0.35971 -0.17113,1.60084 -0.42774,3.16602 -0.2566,1.56518 -0.60633,3.50071 -0.98633,5.41992 l -1.30664,6.59961 -16.580076,0.16992 c -5.170124,0.0532 -9.793833,0.0323 -13.416015,-0.0527 -3.622182,-0.085 -6.271881,-0.24101 -7.376953,-0.42969 -6.053516,-1.03359 -9.884817,-3.39447 -12.017578,-7.72656 -2.132762,-4.33209 -2.539293,-10.74322 -1.404297,-19.81836 1.430281,-11.43616 3.699835,-19.61239 7.185547,-25.22852 3.485711,-5.61613 8.155872,-8.70914 14.591796,-10.06445 0.451299,-0.095 1.671402,-0.20246 3.539063,-0.28711 1.867661,-0.0846 4.411372,-0.1565 7.632812,-0.21289 6.44288,-0.11278 15.599961,-0.16797 27.521481,-0.16797 9.78409,0 18.67949,-0.052 25.13086,-0.13476 3.22569,-0.0414 5.84004,-0.0898 7.65235,-0.14454 0.90615,-0.0274 1.611,-0.0556 2.09765,-0.0859 0.24333,-0.0152 0.42969,-0.031 0.57227,-0.0488 0.0713,-0.009 0.12827,-0.0179 0.19726,-0.0352 0.0345,-0.009 0.0695,-0.0152 0.13672,-0.0488 0.0336,-0.0168 0.0781,-0.0374 0.13867,-0.0977 0.0303,-0.0301 0.0952,-0.13184 0.0957,-0.13281 4.9e-4,-9.8e-4 0.0547,-0.22363 0.0547,-0.22461 -4e-4,0.0481 0.002,-0.0128 0.008,-0.0723 0.006,-0.0595 0.0152,-0.14499 0.0273,-0.25195 0.0243,-0.21392 0.0591,-0.51564 0.10547,-0.89649 0.0928,-0.7617 0.22718,-1.83517 0.39258,-3.14062 0.3308,-2.610907 0.78808,-6.151555 1.28906,-9.988283 0.50124,-3.838704 0.95659,-7.458166 1.28711,-10.199219 0.16526,-1.370526 0.29775,-2.52106 0.39063,-3.371094 0.0929,-0.850033 0.14843,-1.337067 0.14843,-1.603515 0,-0.176974 -0.0364,-0.481641 -0.24609,-0.710938 -0.20972,-0.229297 -0.48936,-0.338607 -0.86914,-0.427734 -0.75957,-0.178254 -2.03615,-0.269926 -4.47461,-0.328125 z m 511.59375,0.05469 -55.64258,0.15625 -9.30469,59.757811 c -5.08097,32.63518 -9.49203,60.92843 -9.79687,62.83399 l -0.65234,4.08007 55.85156,0 55.66797,0 0.38281,-1.76367 c 0.0936,-0.43086 0.36843,-2.00682 0.75976,-4.29687 0.39134,-2.29006 0.89051,-5.25849 1.40235,-8.35547 1.02316,-6.19094 2.02077,-12.05734 2.19336,-12.91602 l 0.45703,-2.27148 -38.39063,0 c -10.99805,0 -20.4416,-0.0572 -27.13281,-0.1543 -3.3456,-0.0485 -6.00409,-0.10774 -7.82031,-0.17383 -0.90811,-0.033 -1.60736,-0.0678 -2.06836,-0.10351 -0.10036,-0.008 -0.13988,-0.0157 -0.2168,-0.0234 0.0166,-0.16792 0.0196,-0.22287 0.0566,-0.51953 0.066,-0.52855 0.16209,-1.24159 0.27735,-2.08008 0.23051,-1.67698 0.54104,-3.8526 0.86328,-6.04883 0.32224,-2.19623 0.65532,-4.41376 0.92969,-6.17773 0.27436,-1.76398 0.49962,-3.11228 0.57226,-3.43164 l 0.22266,-0.98047 35.05859,0 35.89258,0 2.03711,-14.58008 c 0.54352,-3.89189 1.03545,-7.48025 1.39062,-10.1289 0.17759,-1.32433 0.3194,-2.41433 0.41797,-3.18946 0.0493,-0.38756 0.0875,-0.6956 0.11328,-0.91797 0.0129,-0.11118 0.0226,-0.20043 0.0293,-0.26953 0.007,-0.0691 0.0156,-0.0793 0.0117,-0.1875 -4e-5,-9.8e-4 -0.0581,-0.21777 -0.0586,-0.21875 -5.2e-4,-9.8e-4 -0.066,-0.098 -0.0957,-0.12695 -0.0595,-0.058 -0.10166,-0.0793 -0.13476,-0.0957 -0.0662,-0.0329 -0.10237,-0.0402 -0.13672,-0.0488 -0.0687,-0.0172 -0.12622,-0.0243 -0.19727,-0.0332 -0.14209,-0.0179 -0.32836,-0.0337 -0.57031,-0.0488 -0.48389,-0.0303 -1.18398,-0.0586 -2.08398,-0.0859 -1.80001,-0.0547 -4.39561,-0.10315 -7.59766,-0.14453 -6.4041,-0.0828 -15.23079,-0.13477 -24.93945,-0.13477 -15.23881,0 -24.06452,-0.0308 -29.06641,-0.15625 -2.50095,-0.0627 -4.05082,-0.1499 -4.93945,-0.26367 -0.406,-0.052 -0.63694,-0.11114 -0.76758,-0.15625 0.0131,-0.12184 0.0324,-0.316 0.0957,-0.72656 0.08,-0.51874 0.19591,-1.21814 0.33985,-2.04297 0.28787,-1.64966 0.68568,-3.80532 1.12304,-6.06836 l 1.51367,-7.83594 37.38868,-0.15625 38.23047,-0.1582 2.00976,-13.814454 c 0.53579,-3.683015 1.0273,-7.15135 1.38867,-9.773438 0.18069,-1.311044 0.32905,-2.410663 0.4336,-3.220703 0.10454,-0.81004 0.16408,-1.27799 0.17382,-1.513672 0.005,-0.122753 -0.0146,-0.291783 -0.10156,-0.445312 -0.0869,-0.15353 -0.22433,-0.269671 -0.36914,-0.34961 -0.28961,-0.159877 -0.64204,-0.236842 -1.20898,-0.3125 -1.13388,-0.151316 -3.1267,-0.244542 -6.76172,-0.304687 -7.27005,-0.120291 -21.07143,-0.09509 -47.23047,-0.02148 z m -147.67969,0.458985 c -7.46786,0 -14.25676,0.05527 -19.18164,0.142578 -2.46244,0.04365 -4.45764,0.0945 -5.84375,0.152344 -0.69305,0.02892 -1.23369,0.0593 -1.61133,0.0918 -0.18882,0.01625 -0.33425,0.03181 -0.45507,0.05273 -0.0604,0.01046 -0.11127,0.01984 -0.1836,0.04492 -0.0362,0.01254 -0.0784,0.02563 -0.14844,0.07422 -0.035,0.02429 -0.0792,0.05881 -0.12695,0.125 -0.0239,0.03309 -0.048,0.07395 -0.0664,0.125 -0.0184,0.05105 -0.0312,0.172794 -0.0312,0.173828 0,0.111378 0.0126,0.129712 0.0234,0.189453 0.0109,0.05974 0.0244,0.130917 0.043,0.216797 0.0372,0.171759 0.0917,0.40237 0.16016,0.6875 0.13694,0.570259 0.33317,1.357816 0.57617,2.310546 0.48599,1.905462 1.15583,4.466458 1.89258,7.222657 4.20462,15.729801 13.16036,49.346601 13.83398,51.927731 0.14195,0.54393 0.2567,0.96169 0.36719,1.28516 0.11049,0.32347 0.17795,0.55775 0.43164,0.77734 0.12684,0.1098 0.351,0.19475 0.54492,0.16797 0.19392,-0.0268 0.3223,-0.11845 0.42383,-0.20508 0.20306,-0.17325 0.34589,-0.38087 0.5332,-0.65039 0.10569,-0.15207 0.27822,-0.44722 0.58985,-0.97656 0.31163,-0.52934 0.73778,-1.25929 1.26172,-2.16406 1.04787,-1.80955 2.48872,-4.31311 4.18945,-7.2793 3.40144,-5.93238 7.84326,-13.71451 12.26562,-21.48047 4.42236,-7.76596 8.82561,-15.516196 12.14649,-21.388669 1.66044,-2.936237 3.04963,-5.403285 4.03711,-7.167969 0.49374,-0.882342 0.88758,-1.588368 1.16406,-2.091797 0.13824,-0.251715 0.24739,-0.453417 0.32617,-0.601563 0.0788,-0.148145 0.10944,-0.19322 0.1582,-0.320312 0.0755,-0.196771 -0.01,-0.507022 -0.13671,-0.636719 -0.12684,-0.129696 -0.24367,-0.174413 -0.36719,-0.21875 -0.24704,-0.08867 -0.54757,-0.141473 -0.97852,-0.193359 -0.8619,-0.103773 -2.21743,-0.180565 -4.25195,-0.238281 -4.06903,-0.115433 -10.8404,-0.154297 -21.58594,-0.154297 z m -335.27539,0.392578 33.83594,0 c 10.20471,0 19.28295,0.06485 26.1914,0.177734 6.90846,0.112882 11.69656,0.280444 13.14258,0.460938 15.56988,1.943433 25.67862,10.068156 30.37305,24.390626 1.66086,5.0672 1.73058,5.74797 1.70313,15.54687 -0.0267,9.54458 -0.13466,10.58346 -1.63086,15.07227 -3.49973,10.49961 -10.5278,18.67173 -19.36329,22.58008 -0.76195,0.33705 -1.45345,0.68523 -1.96875,0.98437 -0.25765,0.14957 -0.47118,0.2855 -0.63867,0.41406 -0.0837,0.0643 -0.15622,0.12484 -0.22656,0.20313 -0.0703,0.0783 -0.18359,0.16106 -0.18359,0.43359 0,0.18635 0.0304,0.19221 0.0508,0.25 0.0204,0.0578 0.0452,0.11862 0.0762,0.19141 0.0619,0.14558 0.14895,0.33437 0.26172,0.57227 0.22553,0.47579 0.55414,1.14355 0.97656,1.98242 0.84483,1.67774 2.0636,4.04408 3.56445,6.92383 3.00172,5.75949 7.13142,13.57121 11.64844,22.01171 1.81592,3.39323 3.46653,6.54295 4.66211,8.88282 0.59779,1.16993 1.08159,2.1376 1.41406,2.82812 0.13277,0.27574 0.22166,0.47007 0.30274,0.65039 -0.18997,0.0268 -0.37909,0.0541 -0.69336,0.0801 -0.84997,0.0704 -2.12332,0.13128 -3.76563,0.18164 -3.28461,0.10072 -8.04995,0.1582 -13.9414,0.1582 l -18.73242,0 -8.3086,-20.38085 -8.5625,-21.00391 -14.16601,0 -14.23633,0 -0.43555,2.07031 c -0.0574,0.27329 -0.178,1.01748 -0.36328,2.19531 -0.18528,1.17783 -0.42893,2.76265 -0.71094,4.61524 -0.56402,3.70518 -1.28137,8.48308 -1.98633,13.23047 -0.70495,4.74738 -1.39672,9.46406 -1.91406,13.04101 -0.25867,1.78848 -0.47473,3.29116 -0.625,4.37305 -0.0751,0.54094 -0.13327,0.97683 -0.17383,1.29102 -0.0112,0.087 -0.017,0.14259 -0.0254,0.21093 -0.21629,0.0261 -0.53699,0.0522 -0.96289,0.0781 -0.88469,0.0539 -2.17653,0.10325 -3.77148,0.14453 -3.1899,0.0826 -7.59568,0.13476 -12.44141,0.13476 l -17.03711,0 0.19531,-1.08593 c 0.055,-0.30588 0.33246,-2.15006 0.81641,-5.39453 0.48395,-3.24448 1.16354,-7.82779 1.99023,-13.41211 1.6534,-11.16866 3.89249,-26.34302 6.31836,-42.82813 2.42583,-16.48475 4.6658,-31.62541 6.32032,-42.73828 0.82725,-5.556437 1.50758,-10.10538 1.99218,-13.3125 0.2423,-1.60356 0.43642,-2.871928 0.57422,-3.761719 0.0689,-0.444895 0.12381,-0.795271 0.16407,-1.044922 0.0402,-0.24965 0.0718,-0.42645 0.0703,-0.419921 l 0.2207,-0.978516 z m 264.21094,0 19.08203,0 19.3418,0 10.21484,37.361328 c 2.83684,10.37723 5.45344,19.81138 7.38477,26.65234 0.96566,3.42049 1.76101,6.19378 2.32617,8.11328 0.28258,0.95976 0.50796,1.70557 0.66992,2.2168 0.081,0.25562 0.14422,0.45019 0.19531,0.5918 0.0256,0.0708 0.0476,0.12671 0.0723,0.18164 0.0123,0.0275 0.0234,0.0538 0.0508,0.0977 0.0137,0.0219 0.0286,0.0488 0.0723,0.0937 0.0218,0.0225 0.10264,0.0815 0.10351,0.082 8.7e-4,5.2e-4 0.25904,0.0723 0.25977,0.0723 7.2e-4,0 0.18293,-0.0327 0.22656,-0.0547 0.0436,-0.022 0.069,-0.0399 0.0879,-0.0547 0.0378,-0.0295 0.0538,-0.0468 0.0684,-0.0625 0.0291,-0.0314 0.0446,-0.0543 0.0625,-0.0781 0.0358,-0.0476 0.0716,-0.0993 0.11719,-0.16797 0.0911,-0.13739 0.21414,-0.33229 0.37109,-0.58593 0.31391,-0.50729 0.76237,-1.24973 1.33203,-2.20508 1.13933,-1.91071 2.76426,-4.67178 4.75391,-8.07813 3.97929,-6.8127 9.41947,-16.20767 15.36328,-26.54297 L 545.20117,76.876953 564.5,76.71875 c 5.62038,-0.04607 10.51307,-0.02734 13.99609,0.04102 1.74152,0.03418 3.13168,0.07959 4.07618,0.136718 0.34704,0.02099 0.5615,0.04554 0.77929,0.06836 -5.4e-4,0.001 -0.001,9.37e-4 -0.002,0.002 -0.1868,0.349752 -0.4644,0.854955 -0.82422,1.494141 -0.71963,1.278371 -1.76367,3.094845 -3.05078,5.314453 -2.57422,4.439215 -6.12633,10.488648 -10.0332,17.076169 -7.81526,13.17763 -23.85879,40.25396 -35.65235,60.16992 -5.89656,9.95763 -11.42366,19.26782 -15.57812,26.24414 -4.15446,6.97633 -6.97368,11.67685 -7.33399,12.23243 l -1.33203,2.05468 -15.25781,0 c -5.93461,0 -9.82986,-0.0456 -12.25,-0.16211 -1.21007,-0.0583 -2.0543,-0.13714 -2.57617,-0.22851 -0.26094,-0.0457 -0.44186,-0.097 -0.52735,-0.13281 -0.0855,-0.0358 -0.0245,-0.051 0.0274,0.0957 -0.0101,-0.0286 -0.20216,-0.64397 -0.49805,-1.61328 -0.29589,-0.96931 -0.71412,-2.34571 -1.23633,-4.07031 -1.04442,-3.44921 -2.50618,-8.29208 -4.24609,-14.06446 -3.47983,-11.54475 -8.07264,-26.80636 -12.66016,-42.07226 -4.58751,-15.2659 -9.16967,-30.53633 -12.63281,-42.095706 -1.73157,-5.779689 -3.18294,-10.631621 -4.21484,-14.091796 -0.51595,-1.730088 -0.9282,-3.11218 -1.2168,-4.087891 -0.2886,-0.975711 -0.46656,-1.592966 -0.47656,-1.632813 l -0.20508,-0.820312 z m -292.875,0.0918 c 2.41914,0.05774 3.69459,0.167351 4.27148,0.302734 0.28845,0.06769 0.37152,0.144136 0.35938,0.130859 -0.0121,-0.01328 -0.0156,-0.06961 -0.0156,0.03516 0,0.05166 -0.0504,0.652417 -0.14257,1.496093 -0.0922,0.843677 -0.22565,1.991133 -0.39063,3.359376 -0.32997,2.736484 -0.78429,6.353627 -1.28516,10.189453 -0.50112,3.837792 -0.95803,7.377475 -1.28906,9.990239 -0.16552,1.30637 -0.29943,2.38189 -0.39258,3.14648 -0.0466,0.38229 -0.0825,0.68556 -0.10742,0.9043 -9e-5,7.9e-4 9e-5,0.001 0,0.002 -0.094,0.008 -0.16233,0.0169 -0.29883,0.0254 -0.46566,0.029 -1.16572,0.0568 -2.0664,0.084 -1.80138,0.0544 -4.41232,0.10319 -7.63477,0.14454 -6.44489,0.0827 -15.3366,0.13476 -25.11719,0.13476 -11.92464,0 -21.085395,0.055 -27.539059,0.16797 -3.226832,0.0565 -5.776636,0.12752 -7.660156,0.21289 -1.88352,0.0854 -3.071506,0.176 -3.701172,0.30859 -6.643966,1.39912 -11.622489,4.69621 -15.234375,10.51563 -3.611886,5.81942 -5.889026,14.12419 -7.328125,25.63086 -1.145704,9.16076 -0.781563,15.75043 1.5,20.38476 2.281563,4.63434 6.507829,7.20635 12.746094,8.27149 1.266848,0.2163 3.883276,0.358 7.521484,0.44336 3.638208,0.0853 8.270224,0.10605 13.449219,0.0527 l 17.39453,-0.17968 1.46484,-7.39649 c 0.38215,-1.93008 0.7334,-3.87264 0.99219,-5.45117 0.2588,-1.57853 0.42541,-2.74586 0.4375,-3.30664 l 0.0488,-2.18555 -20.18164,0 -19.095703,0 1.917969,-14.11523 c 0.548463,-4.03581 1.073207,-7.72959 1.476562,-10.42969 0.201678,-1.35005 0.373677,-2.45252 0.501953,-3.2207 0.06215,-0.3722 0.110823,-0.65931 0.150391,-0.86133 0.117261,-0.005 0.231143,-0.009 0.414062,-0.0137 0.50219,-0.0129 1.241189,-0.0252 2.1875,-0.0352 1.892623,-0.0198 4.615796,-0.0322 7.96875,-0.0391 6.705909,-0.0137 15.925098,-1.6e-4 26.037106,0.043 l 36.19922,0.15429 -4.59765,31.07422 c -2.57417,17.40535 -5.14142,34.72888 -5.70508,38.49219 l -0.96094,6.41992 -34.95312,-0.0879 c -9.728914,-0.0243 -19.222678,-0.095 -26.681645,-0.19141 -7.458967,-0.0964 -12.918749,-0.22255 -14.447266,-0.33984 l -0.03125,-0.002 c -12.312367,-0.94964 -19.807404,-4.1443 -27.390625,-11.65039 -5.600113,-5.54317 -8.552312,-10.65989 -10.5625,-18.31055 -1.569414,-5.97311 -2.115047,-18.03348 -1.144531,-25.83594 4.403744,-35.40362 18.406107,-56.348929 43.033203,-64.583982 5.1095,-1.708565 8.099143,-2.581504 14.982422,-3.078125 6.883279,-0.496621 17.642834,-0.601655 38.134762,-0.738281 18.45376,-0.123034 27.92735,-0.179928 32.76563,-0.06445 z m 511.62109,0.05664 c 26.15868,-0.0736 39.96414,-0.09842 47.21094,0.02148 3.6234,0.05995 5.61628,0.159133 6.64844,0.296875 0.48077,0.06416 0.71119,0.141406 0.79883,0.18164 -0.0103,0.122881 -0.0582,0.575822 -0.1543,1.320313 -0.10391,0.805136 -0.2512,1.901641 -0.43164,3.210937 -0.36089,2.618593 -0.8532,6.08479 -1.38867,9.765625 l -1.88672,12.962896 -37.36719,0.15624 -38.21094,0.15821 -1.66992,8.64258 c -0.4384,2.2684 -0.8357,4.42809 -1.125,6.08593 -0.14465,0.82893 -0.26206,1.53286 -0.34375,2.0625 -0.0817,0.52965 -0.13281,0.82597 -0.13281,1.07032 0,0.17912 0.0939,0.37279 0.20898,0.48828 0.11512,0.11548 0.23876,0.17875 0.37305,0.23242 0.26858,0.10734 0.6003,0.1744 1.08398,0.23633 0.96737,0.12385 2.52738,0.20845 5.04102,0.27148 5.02727,0.12607 13.85167,0.15625 29.0918,0.15625 9.70513,0 18.53017,0.0521 24.92773,0.13477 3.19878,0.0413 5.79107,0.0901 7.58008,0.14453 0.8945,0.0272 1.58797,0.055 2.05078,0.084 0.0961,0.006 0.13548,0.0116 0.21094,0.0176 -0.0247,0.20939 -0.0561,0.46419 -0.0996,0.80664 -0.0981,0.77105 -0.24251,1.85863 -0.41992,3.18164 -0.35482,2.64602 -0.84537,6.23269 -1.38868,10.12305 l -1.91601,13.71875 -35.02344,0 -35.85547,0 -0.40039,1.75976 c -0.10277,0.45186 -0.31091,1.72979 -0.58594,3.49805 -0.27503,1.76826 -0.60711,3.98899 -0.92968,6.1875 -0.32258,2.19852 -0.63407,4.37488 -0.86524,6.05664 -0.11558,0.84088 -0.21242,1.5579 -0.27929,2.09375 -0.0669,0.53586 -0.10743,0.82472 -0.10743,1.04883 0,0.001 0.0144,0.13 0.0352,0.18359 0.0207,0.0536 0.0466,0.0977 0.0723,0.13086 0.0514,0.0664 0.0969,0.098 0.13281,0.1211 0.0717,0.0462 0.11574,0.0579 0.1543,0.0703 0.0771,0.0247 0.13744,0.0352 0.21093,0.0469 0.14699,0.0233 0.33415,0.0416 0.57813,0.0605 0.48795,0.0379 1.19233,0.0741 2.10742,0.10742 1.83019,0.0666 4.49222,0.12524 7.8418,0.17383 6.69915,0.0972 16.14691,0.1543 27.14843,0.1543 l 37.16797,0 -0.21484,1.07422 c -0.19743,0.98226 -1.1756,6.7555 -2.19922,12.94922 -0.51156,3.09533 -1.01142,6.06393 -1.40234,8.35156 -0.39093,2.28763 -0.68198,3.92969 -0.75196,4.25195 l -0.21093,0.97656 -54.86133,0 -54.67969,0 0.4668,-2.92187 c 0.31095,-1.94374 4.71783,-30.20258 9.79883,-62.83789 l 9.17187,-58.914064 54.78906,-0.154297 z m -147.68164,0.458985 c 10.74308,0 17.51458,0.03957 21.5586,0.154297 2.022,0.05736 3.36609,0.134863 4.16015,0.230468 0.24199,0.02914 0.32659,0.05845 0.46289,0.08789 -0.0657,0.121814 -0.12748,0.234897 -0.22265,0.408203 -0.27408,0.499061 -0.66711,1.204832 -1.16016,2.085938 -0.98609,1.762211 -2.37512,4.228538 -4.03516,7.164062 -3.32007,5.871048 -7.72254,13.621417 -12.14453,21.386717 -4.42198,7.76531 -8.86302,15.54556 -12.26367,21.47656 -1.70033,2.96551 -3.14095,5.46814 -4.1875,7.27539 -0.52328,0.90363 -0.94839,1.63457 -1.25781,2.16016 -0.30943,0.52559 -0.52792,0.87921 -0.55078,0.91211 -0.0738,0.10615 -0.0931,0.11984 -0.15039,0.19336 -0.0102,-0.0259 -0.006,-0.008 -0.0156,-0.0371 -0.0925,-0.27093 -0.20537,-0.67713 -0.3457,-1.21484 -0.68466,-2.62347 -9.62905,-36.20264 -13.83399,-51.933597 -0.73589,-2.753041 -1.406,-5.308903 -1.89062,-7.208984 -0.24231,-0.950041 -0.43728,-1.736707 -0.57227,-2.298828 -0.0465,-0.193613 -0.0743,-0.321764 -0.10547,-0.458985 0.002,-1.56e-4 0.002,1.56e-4 0.004,0 0.34876,-0.03001 0.8809,-0.05929 1.56641,-0.08789 1.37101,-0.05721 3.36235,-0.110724 5.82031,-0.154297 4.91592,-0.08715 11.70104,-0.140625 19.16406,-0.140625 z M 221.83398,101.19531 c -4.06414,-0.0922 -8.00058,-0.0978 -10.96289,0.002 -1.48115,0.0499 -2.71615,0.12651 -3.61718,0.23437 -0.45052,0.0539 -0.81562,0.11289 -1.10547,0.19141 -0.14493,0.0393 -0.27096,0.0818 -0.39453,0.14648 -0.12358,0.0647 -0.27836,0.14753 -0.36719,0.38477 -0.0718,0.1918 -0.0802,0.30812 -0.12891,0.58398 -0.0487,0.27586 -0.10873,0.64839 -0.17969,1.10938 -0.1419,0.92198 -0.32671,2.19647 -0.54101,3.73437 -0.42861,3.07581 -0.97625,7.20194 -1.54102,11.63867 -0.74408,5.84546 -1.20987,9.91368 -1.42968,12.57618 -0.10991,1.33124 -0.1599,2.30885 -0.14844,3 0.006,0.34557 0.0251,0.61679 0.0684,0.8457 0.0433,0.22891 0.0625,0.45314 0.35156,0.65234 0.19553,0.13474 0.24988,0.10779 0.35547,0.12696 0.10559,0.0192 0.22895,0.034 0.37695,0.0488 0.29601,0.0297 0.6918,0.0563 1.18555,0.0801 0.9875,0.0475 2.36093,0.085 4.02539,0.11133 3.32893,0.0526 7.8206,0.0594 12.67773,0.01 8.46226,-0.0866 12.91024,-0.14567 15.71094,-0.35938 2.80071,-0.21371 3.98812,-0.60309 5.73242,-1.29883 4.78746,-1.90954 9.12134,-6.12626 10.56836,-10.37305 0.61037,-1.79132 1.04102,-4.96286 1.04102,-7.4746 0,-3.76911 -0.29895,-4.95578 -1.85547,-7.41016 -2.05073,-3.23367 -5.45662,-5.47447 -10.66602,-7.10938 -1.27875,-0.40131 -3.96897,-0.69036 -7.43554,-0.93554 -3.46658,-0.24519 -7.65656,-0.42346 -11.72071,-0.51563 z m -0.0234,1 c 4.05052,0.0919 8.22986,0.27009 11.67383,0.51367 3.44396,0.24359 6.20481,0.57805 7.20703,0.89258 5.08034,1.5944 8.22554,3.70048 10.12109,6.68946 1.51726,2.39247 1.69922,3.14888 1.69922,6.875 0,2.39183 -0.44946,5.57673 -0.98633,7.15234 -1.31213,3.8509 -5.48889,7.97138 -9.99219,9.76758 -1.72258,0.68707 -2.70551,1.02185 -5.43945,1.23047 -2.73394,0.20861 -7.18342,0.26893 -15.64453,0.35547 -4.84976,0.0496 -9.33609,0.0427 -12.65234,-0.01 -1.65813,-0.0262 -3.02598,-0.0647 -3.99415,-0.11133 -0.48408,-0.0233 -0.86791,-0.0476 -1.13281,-0.0742 -0.0898,-0.009 -0.14224,-0.0188 -0.20117,-0.0273 -0.0246,-0.13275 -0.0456,-0.35997 -0.0508,-0.66992 -0.0104,-0.62709 0.036,-1.58544 0.14453,-2.90039 0.21712,-2.62991 0.68242,-6.6915 1.42578,-12.53125 0.56434,-4.43336 1.11124,-8.55679 1.53906,-11.62696 0.21391,-1.53508 0.39845,-2.80704 0.53907,-3.7207 0.0703,-0.45683 0.12933,-0.82481 0.17578,-1.08789 0.0324,-0.1835 0.0451,-0.2276 0.0566,-0.2832 0.0341,-0.0129 0.0522,-0.023 0.11133,-0.0391 0.205,-0.0555 0.53691,-0.11525 0.96093,-0.16601 0.84805,-0.10152 2.06769,-0.17722 3.53321,-0.22656 2.93104,-0.0987 6.85573,-0.0938 10.90625,-0.002 z m 147.43359,2.73633 c -10.83175,-0.51206 -18.80861,2.652 -26.85937,10.64453 -3.94383,3.91531 -5.55394,6.10047 -7.80469,10.59766 -3.82138,7.63542 -5.00766,13.24854 -4.63672,21.94726 0.20692,4.85254 0.64968,7.78124 1.56445,10.12305 2.79333,7.15086 8.74684,12.74462 16.04688,15.07617 4.32772,1.38222 12.56805,1.62067 17.66211,0.54297 7.57635,-1.60286 15.91811,-6.91028 20.80273,-13.22461 6.2283,-8.05131 9.29126,-17.91616 9.21485,-27.09179 -0.0764,-9.17564 -3.29727,-17.68579 -9.70313,-22.95118 -4.50404,-3.70217 -9.20789,-5.3294 -16.28711,-5.66406 z m -0.0488,0.99805 c 6.95,0.32854 11.34708,1.85857 15.70117,5.4375 6.12402,5.03373 9.26339,13.24268 9.3379,22.18945 0.0745,8.94677 -2.92261,18.60689 -9.00586,26.4707 -4.71143,6.09044 -12.93776,11.31705 -20.21875,12.85743 -4.84231,1.02444 -13.15378,0.75888 -17.15039,-0.51758 -7.00829,-2.23837 -12.73762,-7.61967 -15.41993,-14.48633 -0.85139,-2.17955 -1.29104,-4.99405 -1.49609,-9.80274 -0.36638,-8.59192 0.75965,-13.92107 4.53125,-21.45703 2.22432,-4.44437 3.70367,-6.4546 7.61328,-10.33593 7.91232,-7.85509 15.48949,-10.85743 26.10742,-10.35547 z"
       id="path3338"
       inkscape:connector-curvature="0" />
  </g>
</svg>
