<?xml version="1.0" encoding="UTF-8"?>
<!DOCTYPE svg PUBLIC "-//W3C//DTD SVG 1.1//EN" "http://www.w3.org/Graphics/SVG/1.1/DTD/svg11.dtd">
<!-- Creator: CorelDRAW X7 -->
<svg xmlns="http://www.w3.org/2000/svg" xml:space="preserve" width="210mm" height="297mm" version="1.1" style="shape-rendering:geometricPrecision; text-rendering:geometricPrecision; image-rendering:optimizeQuality; fill-rule:evenodd; clip-rule:evenodd"
viewBox="0 0 21000 29700"
 xmlns:xlink="http://www.w3.org/1999/xlink">
 <defs>
  <style type="text/css">
   <![CDATA[
    .str0 {stroke:black;stroke-width:7.62}
    .fil0 {fill:none}
   ]]>
  </style>
 </defs>
 <g id="Layer_x0020_1">
  <metadata id="CorelCorpID_0Corel-Layer"/>
  <path class="fil0 str0" d="M-13302 45480c100,989 455,1749 1304,2157 256,123 566,204 891,238 723,75 3610,27 4583,32l522 -3509 139 -956c-372,-38 -4146,-39 -4305,16l-215 1722 2289 2 -197 994c-741,0 -2387,153 -2782,-310 -432,-507 -168,-1996 94,-2583 420,-941 1073,-872 2232,-872 1023,0 2047,3 3071,-1l214 -1790c-1059,-5 -2119,0 -3179,0 -1843,0 -3357,233 -4171,2171 -328,782 -527,1744 -490,2689z"/>
  <path class="fil0 str0" d="M26178 46750l73 -503 -4374 -2 177 -1179 4089 -6c96,-182 225,-1384 266,-1697l-4115 1c27,-198 64,-373 103,-576 41,-213 39,-463 148,-492 575,0 4076,57 4325,-18l236 -1684 -6360 17c-99,55 -63,37 -88,190 -172,1065 -1102,6895 -1091,7131l6402 5 209 -1187z"/>
  <path class="fil0 str0" d="M-2696 44076c26,-315 182,-1770 264,-1956 386,-39 1559,-34 1911,40 536,111 921,427 790,1082 -107,540 -502,788 -1081,855 -360,43 -1523,15 -1884,-21zm-1897 -600c49,236 -243,1852 -299,2223l-319 2207 2038 1 345 -2374 1622 9 967 2364 2239 -4c-39,-117 -146,-242 -154,-361l-111 -163c-192,-346 -1041,-1921 -1097,-2117 1520,-435 1924,-2900 776,-4051 -663,-663 -1407,-590 -2505,-590 -466,0 -2811,-69 -3047,27 -78,281 -252,1658 -322,2136 -22,145 -68,595 -133,693z"/>
  <path class="fil0 str0" d="M8488 44174c-337,2804 -4027,2810 -3716,219 124,-1037 841,-1877 1786,-2059 1223,-235 2074,648 1930,1840zm-4477 3300c251,43 894,647 2484,509 1589,-139 2933,-1046 3602,-2463 639,-1352 337,-2274 391,-2569l-155 -464c-782,-2231 -3777,-2542 -5777,-1132 -1423,1002 -2281,3193 -1573,4848 208,488 396,679 723,1005 93,93 228,139 305,266z"/>
  <path class="fil0 str0" d="M11795 42731l1573 5175 1825 -4c175,-272 332,-547 502,-841l2455 -4141c67,-113 885,-1565 971,-1603 102,-252 292,-463 376,-697l-2286 0 -629 1085c-203,361 -1809,3184 -1917,3273l-1196 -4358 -2302 4 628 2107z"/>
  <path class="fil0 str0" d="M14758 44450c133,-163 2150,-3732 2172,-3830l-3179 0c2,146 841,3383 1007,3830z"/>
 </g>
</svg>
